<svg width="128" height="127" viewBox="0 0 128 127" fill="none" xmlns="http://www.w3.org/2000/svg">
<path d="M26.332 37.2056L27.7914 38.2301L29.4436 35.8766L30.8002 36.8289L29.148 39.1825L30.7307 40.2936L32.5994 37.6317L34.0074 38.6201L30.905 43.0395L23.6902 37.9746L26.7926 33.5553L28.2006 34.5437L26.332 37.2056Z" fill="#EDEBF8"/>
<path d="M33.1322 29.4526C33.7274 28.8879 34.3854 28.6328 35.1064 28.6873C35.8277 28.7299 36.5082 29.0882 37.1478 29.7623L39.9655 32.7318L38.417 34.2012L35.7981 31.4412C35.4754 31.1011 35.1367 30.9205 34.7819 30.8993C34.4272 30.8782 34.101 31.0088 33.8035 31.2911C33.5059 31.5735 33.3584 31.8923 33.3609 32.2477C33.3634 32.603 33.526 32.9507 33.8487 33.2908L36.4676 36.0509L34.91 37.5289L30.087 32.446L31.6447 30.968L32.2843 31.6421C32.229 31.2676 32.2744 30.8898 32.4206 30.5087C32.561 30.1216 32.7982 29.7696 33.1322 29.4526Z" fill="#EDEBF8"/>
<path d="M42.8244 28.5605L41.5043 23.5065L43.4519 22.3107L44.9993 29.5828L42.7413 30.9691L36.9563 26.2988L38.9146 25.0965L42.8244 28.5605Z" fill="#EDEBF8"/>
<path d="M45.4319 20.8127C45.0866 20.9634 44.7592 20.9875 44.4497 20.8851C44.1444 20.7717 43.9265 20.5654 43.7959 20.2661C43.662 19.9592 43.6589 19.6592 43.7867 19.3659C43.9188 19.0617 44.1575 18.8342 44.5028 18.6835C44.8404 18.5362 45.1618 18.5192 45.467 18.6327C45.7766 18.735 45.9983 18.9397 46.1323 19.2466C46.2629 19.5458 46.2621 19.8476 46.13 20.1519C46.0022 20.4451 45.7695 20.6654 45.4319 20.8127ZM46.7015 21.0533L49.504 27.4754L47.5359 28.3342L44.7334 21.9121L46.7015 21.0533Z" fill="#EDEBF8"/>
<path d="M56.0554 21.7422C56.1075 21.9362 56.1498 22.1416 56.182 22.3583L51.4891 23.62C51.6344 24.0317 51.8548 24.3192 52.1501 24.4825C52.4513 24.6356 52.7757 24.6654 53.1233 24.572C53.6407 24.4328 53.9418 24.1178 54.0265 23.627L56.2335 23.0336C56.2399 23.5086 56.1414 23.9642 55.9379 24.4004C55.7425 24.8343 55.4496 25.2121 55.0593 25.5338C54.669 25.8554 54.199 26.0902 53.6493 26.238C52.9864 26.4162 52.3582 26.4334 51.7647 26.2896C51.1712 26.1457 50.6583 25.8502 50.226 25.4029C49.7937 24.9557 49.483 24.3804 49.2939 23.6771C49.1048 22.9737 49.0811 22.3213 49.2227 21.7197C49.3725 21.116 49.668 20.6031 50.1093 20.1811C50.5507 19.759 51.1068 19.4578 51.7778 19.2774C52.4327 19.1013 53.0517 19.0822 53.6349 19.2202C54.2181 19.3581 54.7197 19.6437 55.1396 20.0769C55.5675 20.508 55.8728 21.0631 56.0554 21.7422ZM53.7865 21.767C53.6909 21.4113 53.4935 21.161 53.1945 21.016C52.8955 20.871 52.564 20.8474 52.2002 20.9452C51.8526 21.0387 51.5847 21.2191 51.3965 21.4864C51.2164 21.7515 51.1481 22.0776 51.1914 22.4647L53.7865 21.767Z" fill="#EDEBF8"/>
<path d="M69.3354 18.037L69.0111 25.0364L66.8661 24.937L66.9103 23.9837C66.6785 24.283 66.37 24.5201 65.9848 24.695C65.6084 24.862 65.1943 24.935 64.7428 24.914C64.2076 24.8892 63.7405 24.7503 63.3416 24.4972C62.9431 24.2357 62.6414 23.8739 62.4365 23.4119C62.2316 22.9498 62.1433 22.4136 62.1716 21.8031L62.3611 17.7139L64.4935 17.8127L64.3174 21.6134C64.2957 22.0817 64.4001 22.4511 64.6306 22.7216C64.8611 22.992 65.1813 23.1368 65.591 23.1557C66.0091 23.1751 66.3455 23.0608 66.6 22.8128C66.8545 22.5648 66.9926 22.2067 67.0143 21.7384L67.1904 17.9376L69.3354 18.037Z" fill="#EDEBF8"/>
<path d="M81.5306 21.3473C82.3524 21.635 82.9171 22.1121 83.2247 22.7786C83.5403 23.4479 83.5432 24.225 83.2333 25.1099L81.8805 28.9736L79.8657 28.2681L81.1231 24.6771C81.2725 24.2504 81.2727 23.8824 81.1238 23.573C80.9856 23.2585 80.7189 23.0321 80.3239 22.8938C79.9288 22.7555 79.5752 22.7647 79.2631 22.9215C78.9617 23.0732 78.7362 23.3623 78.5868 23.789L77.3294 27.38L75.3147 26.6746L76.5721 23.0835C76.7215 22.6569 76.7217 22.2889 76.5728 21.9795C76.4346 21.665 76.1679 21.4386 75.7729 21.3003C75.3778 21.1619 75.0242 21.1712 74.7121 21.328C74.4106 21.4797 74.1852 21.7688 74.0358 22.1955L72.7784 25.7865L70.7518 25.0769L73.0674 18.4637L75.094 19.1733L74.8035 20.0029C75.1058 19.7983 75.4505 19.6751 75.8377 19.6333C76.2276 19.5835 76.632 19.632 77.0507 19.7786C77.5485 19.9529 77.9536 20.2145 78.2661 20.5634C78.5864 20.915 78.7881 21.3271 78.871 21.7997C79.2274 21.5164 79.6432 21.3294 80.1185 21.2386C80.5938 21.1478 81.0645 21.184 81.5306 21.3473Z" fill="#EDEBF8"/>
<path d="M93.5419 33.6883C93.4106 33.8404 93.2643 33.9905 93.103 34.1388L89.4257 30.9617C89.1665 31.313 89.0521 31.6567 89.0825 31.9928C89.1248 32.328 89.2821 32.6133 89.5545 32.8486C89.9599 33.1989 90.3896 33.2714 90.8435 33.0662L92.5728 34.5603C92.1831 34.8321 91.7507 35.0061 91.2755 35.0823C90.8066 35.164 90.3296 35.1335 89.8444 34.9909C89.3591 34.8482 88.9011 34.5908 88.4704 34.2186C87.951 33.7698 87.5843 33.2594 87.3705 32.6875C87.1566 32.1155 87.1135 31.5251 87.2412 30.9163C87.3689 30.3075 87.6709 29.7276 88.147 29.1765C88.6232 28.6254 89.15 28.2397 89.7274 28.0195C90.3112 27.8048 90.9016 27.7618 91.4986 27.8903C92.0956 28.0189 92.6569 28.3103 93.1827 28.7646C93.6958 29.2079 94.0588 29.7096 94.2718 30.2698C94.4848 30.83 94.5298 31.4054 94.4067 31.996C94.2899 32.5921 94.0017 33.1562 93.5419 33.6883ZM92.2486 31.8241C92.4894 31.5454 92.5859 31.2416 92.5382 30.9127C92.4904 30.5838 92.324 30.2962 92.039 30.0499C91.7666 29.8146 91.467 29.694 91.1401 29.6881C90.8196 29.6878 90.5113 29.8142 90.2152 30.0672L92.2486 31.8241Z" fill="#EDEBF8"/>
<path d="M99.6888 38.6831L98.2742 39.7687L94.9106 35.3853L96.3252 34.2998L99.6888 38.6831Z" fill="#EDEBF8"/>
<path d="M106.759 49.1759C107.083 49.9841 107.095 50.7232 106.795 51.3934C106.499 52.0713 105.915 52.5847 105.045 52.9333L101.245 54.4558L100.451 52.4742L103.983 51.0592C104.403 50.891 104.68 50.6492 104.815 50.3335C104.961 50.0225 104.956 49.6728 104.8 49.2842C104.645 48.8957 104.405 48.6354 104.082 48.5034C103.769 48.3761 103.403 48.3966 102.984 48.5647L99.4517 49.9797L98.6578 47.9981L102.19 46.5831C102.609 46.415 102.887 46.1731 103.022 45.8574C103.168 45.5464 103.163 45.1967 103.007 44.8081C102.852 44.4196 102.612 44.1593 102.289 44.0274C101.976 43.9001 101.61 43.9205 101.19 44.0886L97.6584 45.5036L96.8598 43.5103L103.364 40.9045L104.163 42.8977L103.347 43.2246C103.7 43.3177 104.019 43.4963 104.305 43.7604C104.599 44.0214 104.829 44.3579 104.994 44.7697C105.19 45.2593 105.259 45.7365 105.202 46.2013C105.148 46.6739 104.97 47.0969 104.669 47.4701C105.117 47.5523 105.531 47.7425 105.912 48.0407C106.293 48.339 106.575 48.7174 106.759 49.1759Z" fill="#EDEBF8"/>
<path d="M104.741 55.5072C105.459 55.444 106.1 55.5219 106.665 55.741C107.232 55.9684 107.681 56.3028 108.014 56.744C108.347 57.1853 108.539 57.6936 108.59 58.269C108.633 58.761 108.571 59.1993 108.403 59.5839C108.236 59.9768 107.999 60.2876 107.691 60.5164L108.68 60.4293L108.868 62.5683L101.888 63.1835L101.7 61.0445L102.688 60.9574C102.344 60.7776 102.056 60.5089 101.823 60.1513C101.59 59.802 101.452 59.3813 101.409 58.8893C101.359 58.3223 101.459 57.7924 101.71 57.2997C101.969 56.8062 102.358 56.398 102.875 56.075C103.402 55.7597 104.024 55.5704 104.741 55.5072ZM105.19 60.7369C105.723 60.6899 106.131 60.5027 106.413 60.1753C106.696 59.8562 106.819 59.484 106.781 59.0587C106.744 58.6334 106.558 58.2843 106.223 58.0113C105.897 57.7459 105.467 57.6367 104.933 57.6837C104.399 57.7307 103.987 57.9142 103.696 58.234C103.414 58.5614 103.292 58.9377 103.329 59.363C103.366 59.7883 103.552 60.1333 103.887 60.398C104.222 60.671 104.656 60.784 105.19 60.7369Z" fill="#EDEBF8"/>
<path d="M109.324 66.6295C109.351 66.2537 109.482 65.9525 109.716 65.7259C109.959 65.5082 110.242 65.411 110.568 65.4343C110.902 65.4582 111.169 65.5948 111.37 65.8441C111.578 66.1024 111.668 66.4194 111.642 66.7951C111.615 67.1626 111.481 67.4551 111.239 67.6728C111.004 67.8994 110.72 68.0008 110.386 67.9769C110.061 67.9536 109.794 67.8128 109.586 67.5546C109.385 67.3053 109.298 66.9969 109.324 66.6295ZM108.522 67.6422L101.533 67.1425L101.686 65.0007L108.675 65.5004L108.522 67.6422Z" fill="#EDEBF8"/>
<path d="M110.224 71.8047L101.046 70.3531L101.382 68.2322L110.56 69.6838L110.224 71.8047Z" fill="#EDEBF8"/>
<path d="M101.192 77.904C101.314 77.5833 101.506 77.3158 101.766 77.1016C102.024 76.8952 102.316 76.7645 102.641 76.7094C102.975 76.6572 103.302 76.6922 103.623 76.8144C103.951 76.9396 104.219 77.1311 104.425 77.3889C104.639 77.6497 104.774 77.9428 104.829 78.2684C104.881 78.6018 104.846 78.9289 104.724 79.2497C104.599 79.5782 104.407 79.8457 104.149 80.0521C103.889 80.2663 103.592 80.3994 103.258 80.4516C102.933 80.5067 102.606 80.4717 102.277 80.3465C101.956 80.2243 101.689 80.0328 101.475 79.772C101.268 79.5142 101.139 79.2186 101.087 78.8852C101.032 78.5596 101.067 78.2326 101.192 77.904Z" fill="#EDEBF8"/>
<path d="M100.658 88.9494L99.2017 87.92L97.5416 90.268L96.1882 89.3111L97.8483 86.9631L96.2692 85.8467L94.3917 88.5024L92.987 87.5092L96.1041 83.1003L103.302 88.1892L100.185 92.5982L98.7801 91.605L100.658 88.9494Z" fill="#EDEBF8"/>
<path d="M93.8317 96.6799C93.2347 97.2426 92.5758 97.4955 91.8549 97.4386C91.1338 97.3936 90.4545 97.0329 89.8172 96.3567L87.0096 93.3776L88.5631 91.9135L91.1726 94.6824C91.4942 95.0236 91.8323 95.2053 92.1869 95.2277C92.5416 95.25 92.8682 95.1205 93.1667 94.8392C93.4652 94.5579 93.6138 94.2395 93.6125 93.8841C93.6112 93.5288 93.4498 93.1805 93.1282 92.8393L90.5187 90.0705L92.0813 88.5977L96.887 93.6969L95.3244 95.1696L94.6871 94.4934C94.7411 94.8681 94.6944 95.2457 94.5469 95.6263C94.4052 96.0129 94.1668 96.3642 93.8317 96.6799Z" fill="#EDEBF8"/>
<path d="M84.1363 97.5389L85.4395 102.597L83.4879 103.787L81.9649 96.5093L84.2275 95.1306L89.9968 99.8203L88.0345 101.016L84.1363 97.5389Z" fill="#EDEBF8"/>
<path d="M81.5027 105.278C81.8485 105.128 82.176 105.105 82.4852 105.209C82.7901 105.323 83.0073 105.53 83.1368 105.83C83.2697 106.137 83.2718 106.437 83.1431 106.73C83.0099 107.034 82.7705 107.261 82.4247 107.41C82.0866 107.556 81.7651 107.572 81.4603 107.458C81.1511 107.354 80.93 107.149 80.7971 106.842C80.6675 106.542 80.6693 106.24 80.8024 105.936C80.9312 105.644 81.1646 105.424 81.5027 105.278ZM80.234 105.033L77.453 98.6017L79.4239 97.7494L82.2049 104.181L80.234 105.033Z" fill="#EDEBF8"/>
<path d="M70.8832 104.313C70.8316 104.119 70.7901 103.913 70.7586 103.697L75.4557 102.45C75.3117 102.038 75.0923 101.75 74.7976 101.586C74.4969 101.432 74.1726 101.401 73.8246 101.493C73.3068 101.63 73.0046 101.944 72.9183 102.435L70.7093 103.021C70.7045 102.546 70.8046 102.091 71.0095 101.655C71.2064 101.222 71.5005 100.845 71.8918 100.525C72.2832 100.204 72.754 99.9712 73.3042 99.8253C73.9677 99.6492 74.596 99.6341 75.189 99.7799C75.782 99.9258 76.2939 100.223 76.7247 100.672C77.1555 101.12 77.4643 101.697 77.6511 102.401C77.8378 103.105 77.8594 103.757 77.7157 104.358C77.5639 104.961 77.2667 105.473 76.824 105.894C76.3812 106.315 75.8241 106.614 75.1525 106.792C74.4971 106.966 73.878 106.983 73.2952 106.843C72.7125 106.703 72.2119 106.416 71.7934 105.981C71.3669 105.549 71.0635 104.993 70.8832 104.313ZM73.1521 104.296C73.2465 104.652 73.443 104.903 73.7416 105.049C74.0402 105.195 74.3715 105.219 74.7356 105.123C75.0836 105.031 75.3521 104.851 75.5411 104.584C75.7221 104.32 75.7916 103.994 75.7495 103.607L73.1521 104.296Z" fill="#EDEBF8"/>
<path d="M57.5901 107.974L57.9379 100.976L60.0825 101.082L60.0351 102.035C60.2679 101.737 60.5772 101.501 60.963 101.327C61.34 101.162 61.7543 101.09 62.2058 101.112C62.7409 101.139 63.2075 101.28 63.6056 101.534C64.0032 101.797 64.3037 102.16 64.507 102.622C64.7103 103.085 64.7968 103.622 64.7664 104.232L64.5632 108.321L62.4311 108.215L62.62 104.414C62.6433 103.946 62.5401 103.577 62.3106 103.305C62.081 103.034 61.7613 102.888 61.3516 102.868C60.9336 102.847 60.5969 102.96 60.3415 103.207C60.0862 103.455 59.9468 103.812 59.9236 104.28L59.7347 108.081L57.5901 107.974Z" fill="#EDEBF8"/>
<path d="M45.4082 104.623C44.5874 104.333 44.0243 103.854 43.7188 103.186C43.4055 102.516 43.4052 101.739 43.718 100.855L45.0836 96.9959L47.0961 97.708L45.8268 101.295C45.676 101.721 45.6745 102.089 45.8224 102.399C45.9596 102.714 46.2254 102.941 46.62 103.081C47.0146 103.22 47.3682 103.212 47.6809 103.057C47.9829 102.906 48.2092 102.617 48.3601 102.191L49.6294 98.6045L51.6418 99.3166L50.3725 102.903C50.2217 103.33 50.2202 103.698 50.3681 104.008C50.5053 104.322 50.7712 104.55 51.1658 104.689C51.5603 104.829 51.914 104.821 52.2266 104.665C52.5286 104.515 52.755 104.226 52.9058 103.8L54.1751 100.213L56.1993 100.929L53.8618 107.535L51.8375 106.819L52.1308 105.99C51.8278 106.194 51.4827 106.316 51.0954 106.356C50.7053 106.405 50.3011 106.355 49.8828 106.207C49.3857 106.031 48.9814 105.768 48.6701 105.418C48.3509 105.065 48.1507 104.653 48.0693 104.18C47.712 104.462 47.2955 104.647 46.82 104.737C46.3444 104.826 45.8738 104.788 45.4082 104.623Z" fill="#EDEBF8"/>
<path d="M33.4376 92.243C33.5695 92.0914 33.7163 91.9418 33.8781 91.794L37.5448 94.9833C37.8052 94.6329 37.9207 94.2896 37.8914 93.9534C37.8502 93.618 37.6939 93.3322 37.4223 93.096C37.018 92.7444 36.5886 92.6704 36.134 92.8742L34.4096 91.3743C34.8002 91.1038 35.2332 90.9312 35.7087 90.8566C36.1778 90.7765 36.6548 90.8085 37.1395 90.9528C37.6243 91.097 38.0814 91.356 38.5109 91.7296C39.0289 92.1801 39.3938 92.6917 39.6058 93.2644C39.8177 93.8371 39.8588 94.4276 39.7291 95.0359C39.5994 95.6443 39.2955 96.2232 38.8176 96.7727C38.3396 97.3223 37.8115 97.7062 37.2333 97.9244C36.6488 98.1372 36.0583 98.1783 35.4618 98.0478C34.8652 97.9173 34.3048 97.624 33.7806 97.168C33.2689 96.723 32.9076 96.22 32.6964 95.6591C32.4853 95.0982 32.4422 94.5227 32.5673 93.9325C32.686 93.3368 32.9761 92.7736 33.4376 92.243ZM34.7248 94.1116C34.4831 94.3895 34.3856 94.693 34.4322 95.022C34.4789 95.3511 34.6443 95.6392 34.9285 95.8864C35.2001 96.1227 35.4994 96.2443 35.8262 96.2512C36.1467 96.2526 36.4555 96.1272 36.7524 95.8751L34.7248 94.1116Z" fill="#EDEBF8"/>
<path d="M27.3068 87.2271L28.7251 86.1463L32.074 90.5408L30.6558 91.6216L27.3068 87.2271Z" fill="#EDEBF8"/>
<path d="M20.271 76.7096C19.9499 75.9003 19.9404 75.1611 20.2422 74.4919C20.5411 73.815 21.1262 73.3036 21.9977 72.9578L25.8028 71.4481L26.5901 73.4323L23.0535 74.8355C22.6333 75.0023 22.3551 75.2432 22.219 75.5584C22.072 75.8689 22.0757 76.2187 22.23 76.6078C22.3844 76.9968 22.6231 77.2579 22.9461 77.3909C23.2582 77.5193 23.6243 77.5001 24.0445 77.3334L27.5811 75.9301L28.3684 77.9144L24.8318 79.3176C24.4116 79.4843 24.1334 79.7253 23.9973 80.0405C23.8503 80.351 23.854 80.7007 24.0084 81.0898C24.1627 81.4789 24.4014 81.7399 24.7244 81.873C25.0365 82.0013 25.4026 81.9821 25.8228 81.8154L29.3594 80.4122L30.1514 82.4081L23.6384 84.9922L22.8465 82.9963L23.6635 82.6721C23.3109 82.5779 22.9919 82.3982 22.7066 82.1332C22.4136 81.8712 22.1852 81.534 22.0216 81.1216C21.8271 80.6314 21.7592 80.1539 21.818 79.6893C21.8738 79.2168 22.0529 78.7945 22.3556 78.4223C21.9081 78.3386 21.4943 78.147 21.1143 77.8475C20.7343 77.548 20.4532 77.1687 20.271 76.7096Z" fill="#EDEBF8"/>
<path d="M22.3102 70.3849C21.5928 70.4457 20.9517 70.3656 20.3869 70.1447C19.8214 69.9154 19.3728 69.5795 19.0413 69.1371C18.7098 68.6947 18.5196 68.1858 18.4708 67.6102C18.4291 67.1181 18.4928 66.68 18.6619 66.296C18.8302 65.9037 19.0686 65.5936 19.377 65.3658L18.3885 65.4496L18.2071 63.31L25.189 62.7182L25.3704 64.8578L24.3819 64.9416C24.7249 65.1226 25.0124 65.3923 25.2444 65.7507C25.4757 66.1007 25.6122 66.5218 25.6539 67.014C25.702 67.5812 25.5999 68.1108 25.3475 68.6026C25.0868 69.0952 24.697 69.5021 24.1781 69.8233C23.6502 70.1369 23.0276 70.3241 22.3102 70.3849ZM21.8794 65.1537C21.3456 65.199 20.937 65.3848 20.6539 65.7113C20.37 66.0294 20.2461 66.4012 20.2821 66.8266C20.3182 67.252 20.5032 67.6018 20.8373 67.8759C21.1624 68.1424 21.5918 68.253 22.1257 68.2078C22.6595 68.1625 23.0726 67.9805 23.3648 67.6617C23.648 67.3352 23.7716 66.9593 23.7355 66.5339C23.6994 66.1085 23.5147 65.7628 23.1813 65.4971C22.8473 65.2229 22.4133 65.1085 21.8794 65.1537Z" fill="#EDEBF8"/>
<path d="M17.764 59.2468C17.7359 59.6225 17.6043 59.9232 17.3691 60.1491C17.1262 60.3659 16.8419 60.4622 16.5164 60.4378C16.1824 60.4128 15.9157 60.2753 15.7162 60.0253C15.5089 59.7663 15.4193 59.449 15.4475 59.0733C15.475 58.706 15.6102 58.4139 15.8531 58.1971C16.0883 57.9712 16.3728 57.8708 16.7067 57.8958C17.0323 57.9202 17.2987 58.0619 17.506 58.3208C17.7055 58.5709 17.7916 58.8795 17.764 59.2468ZM18.57 58.2368L25.5574 58.7601L25.397 60.9014L18.4097 60.3781L18.57 58.2368Z" fill="#EDEBF8"/>
<path d="M16.8816 54.0699L26.0549 55.5524L25.7123 57.6721L16.5391 56.1897L16.8816 54.0699Z" fill="#EDEBF8"/>
<path d="M25.9342 48.0016C25.811 48.3219 25.6186 48.5888 25.3571 48.8021C25.0986 49.0076 24.8065 49.1374 24.4807 49.1914C24.1471 49.2424 23.8202 49.2063 23.4999 49.0831C23.1717 48.9568 22.9049 48.7644 22.6994 48.5059C22.4861 48.2445 22.3524 47.9508 22.2983 47.6251C22.2473 47.2915 22.2834 46.9645 22.4067 46.6442C22.5329 46.316 22.7253 46.0492 22.9838 45.8437C23.2453 45.6304 23.5428 45.4982 23.8764 45.4472C24.2022 45.3931 24.5291 45.4292 24.8573 45.5555C25.1776 45.6788 25.4444 45.8711 25.6578 46.1326C25.8633 46.3911 25.9915 46.6871 26.0426 47.0207C26.0966 47.3465 26.0605 47.6734 25.9342 48.0016Z" fill="#EDEBF8"/>
</svg>
