<svg width="1280" height="445" viewBox="0 0 1280 445" fill="none" xmlns="http://www.w3.org/2000/svg">
<mask id="mask0_1_997" style="mask-type:luminance" maskUnits="userSpaceOnUse" x="-67" y="0" width="1396" height="505">
<path d="M-66.0757 -6.10352e-05H1329V504.225H-66.0757V-6.10352e-05Z" fill="white"/>
</mask>
<g mask="url(#mask0_1_997)">
<path d="M322.96 378.434C318.773 378.434 314.535 377.245 310.746 374.751C204.346 304.755 144.49 80.6184 141.822 70.9106C138.398 58.4729 145.416 45.5346 157.493 42.0093C169.552 38.4788 182.137 45.7037 185.565 58.1414C186.173 60.3497 243.358 274.857 335.218 335.289C345.799 342.251 348.898 356.726 342.141 367.622C337.803 374.616 330.461 378.434 322.96 378.434Z" fill="#0096AA"/>
<path d="M98.1665 382.01C87.4331 382.01 77.454 380.455 68.3678 377.979C32.0086 368.075 7.64203 346.328 -7.63986 313.348C-51.7737 218.102 11.6601 61.6427 14.5753 54.9483C19.7167 43.1527 33.1719 37.8786 44.621 43.1692C56.0759 48.4619 61.1977 62.3147 56.0584 74.1118C38.6091 114.298 4.27205 230.423 33.4117 293.223C42.8139 313.484 56.8279 326.403 79.9956 332.715C182.824 360.704 274.213 144.469 301.093 57.8697C304.917 45.551 317.72 38.7721 329.668 42.6977C341.628 46.6346 348.223 59.8109 344.4 72.1273C343.315 75.6204 318.237 156.261 273.424 235.707C208.096 351.517 145.721 382.008 98.1665 382.01Z" fill="#561589"/>
<path d="M580.309 157.981C580.309 151.063 584.339 146.449 591.059 146.449C597.776 146.449 602.254 151.063 602.254 157.981V367.111C602.254 374.031 598.225 378.643 591.505 378.643C584.788 378.643 580.309 374.031 580.309 367.111V157.981ZM577.621 61.9542C577.621 54.1149 583.444 48.1172 591.059 48.1172C598.671 48.1172 604.943 54.1149 604.943 61.9542V69.7965C604.943 77.6388 598.671 83.6358 591.059 83.6358C583.444 83.6358 577.621 77.6388 577.621 69.7965V61.9542ZM427.794 167.225H395.886C390.063 167.225 385.585 162.614 385.585 156.617C385.585 151.082 390.511 146.47 395.886 146.47H427.794V121.486C427.794 94.2723 434.511 73.9766 447.949 60.1374C460.041 47.684 475.719 41.6862 495.872 41.6862C507.069 41.6862 515.579 43.0699 523.193 44.9174C528.119 46.3004 531.702 50.4497 531.702 55.5255C531.702 62.4444 525.881 66.596 519.162 65.2109C511.995 63.8273 504.383 62.4444 495.872 62.4444C464.969 62.4444 449.74 82.2776 449.74 121.948V146.47H520.953C526.776 146.47 531.254 151.082 531.254 157.079C531.254 162.614 526.328 167.225 520.953 167.225H449.74V366.877C449.74 373.797 445.709 378.409 438.991 378.409C432.273 378.409 427.794 373.797 427.794 366.877V167.225Z" fill="#A476F0"/>
<path d="M631.896 157.979C631.896 151.061 635.925 146.446 642.646 146.446C649.363 146.446 653.841 151.061 653.841 157.979V187.431C669.518 159.755 700.056 138.074 741.708 138.074C799.485 138.074 833.078 178.205 833.078 234.941V366.92C833.078 373.842 829.047 378.453 822.328 378.453C815.609 378.453 811.131 373.842 811.131 366.92V239.093C811.131 190.66 785.153 158.832 738.572 158.832C693.785 158.832 653.841 193.426 653.841 242.783V366.827C653.841 373.748 649.811 378.359 643.092 378.359C636.374 378.359 631.896 373.748 631.896 366.827V157.979Z" fill="#A476F0"/>
<path d="M866.512 157.979C866.512 151.06 870.544 146.446 877.262 146.446C883.979 146.446 888.459 151.06 888.459 157.979V366.92C888.459 373.842 884.428 378.453 877.71 378.453C870.99 378.453 866.512 373.842 866.512 366.92V157.979ZM863.824 62.4201C863.824 54.58 869.647 48.5831 877.262 48.5831C884.876 48.5831 891.146 54.58 891.146 62.4201V70.2624C891.146 78.1039 884.876 84.1009 877.262 84.1009C869.647 84.1009 863.824 78.1039 863.824 70.2624V62.4201Z" fill="#A476F0"/>
<path d="M936.845 314.214V167.642H911.757C906.383 167.642 901.456 162.569 901.456 157.033C901.456 151.498 906.383 146.887 911.757 146.887H936.845V73.8939C936.845 66.9757 940.876 62.3616 947.594 62.3616C954.312 62.3616 958.792 66.9757 958.792 73.8939V146.887H1030C1035.37 146.887 1040.3 151.96 1040.3 157.495C1040.3 163.03 1035.37 167.642 1030 167.642H958.792V311.907C958.792 345.58 977.147 357.572 1004.02 357.572C1019.7 357.572 1027.91 352.024 1031.04 352.024C1035.97 352.024 1040.9 356.635 1040.9 362.17C1040.9 366.784 1038.66 370.012 1033.73 371.858C1024.77 375.086 1013.43 378.791 1000.44 378.791C964.606 378.791 936.845 358.955 936.845 314.214Z" fill="#A476F0"/>
<path d="M1076.97 455.089C1072.94 453.706 1070.7 450.477 1070.7 445.402C1070.7 439.407 1075.18 434.793 1081 434.793C1083.24 434.793 1085.03 435.255 1088.17 436.638C1095.33 439.869 1103.39 441.252 1117.28 441.252C1142.36 441.252 1157.59 415.756 1172.37 380.7L1173.71 377.472L1071.59 164.99C1070.25 161.762 1069.8 159.457 1069.8 158.071C1069.8 151.153 1074.73 146.54 1081.45 146.54C1088.17 146.54 1090.85 150.692 1093.09 155.767L1184.46 353.948L1264.18 154.843C1265.98 149.77 1269.11 146.54 1274.93 146.54C1281.65 146.54 1286.13 151.153 1286.13 158.071C1286.13 159.917 1285.68 161.762 1284.79 164.069L1192.08 387.159C1171.92 436.513 1148.63 462.469 1115.93 462.469C1100.26 462.469 1089.06 460.162 1076.97 455.089Z" fill="#A476F0"/>
</g>
</svg>
