<svg width="759" height="1008" viewBox="0 0 759 1008" fill="none" xmlns="http://www.w3.org/2000/svg">
<path d="M441.222 151.383L440.343 153.068L438.745 153.995L440.343 154.923L441.222 156.608L442.101 154.923L443.699 153.995L442.101 153.068L441.222 151.383Z" fill="#FEA7AF"/>
<path d="M438.746 0L437.866 1.68496L436.269 2.61265L437.866 3.54034L438.746 5.2253L439.625 3.54034L441.223 2.61265L439.625 1.68496L438.746 0Z" fill="#FEA7AF"/>
<path opacity="0.29" d="M743.414 30.8027L742.534 32.5066L740.919 33.4154L742.534 34.3431L743.414 36.028L744.275 34.3431L745.891 33.4154L744.275 32.5066L743.414 30.8027Z" fill="white"/>
<path opacity="0.29" d="M661.498 72.7L659.757 76.0509L656.58 77.8684L659.757 79.7048L661.498 83.0558L663.221 79.7048L666.398 77.8684L663.221 76.0509L661.498 72.7Z" fill="#FEA7AF"/>
<path opacity="0.29" d="M232.9 33.4158L231.159 36.7668L228 38.6032L231.159 40.4207L232.9 43.7718L234.623 40.4207L237.8 38.6032L234.623 36.7668L232.9 33.4158Z" fill="white"/>
<path opacity="0.29" d="M247.132 283.112L245.391 286.463L242.232 288.3L245.391 290.117L247.132 293.468L248.873 290.117L252.032 288.3L248.873 286.463L247.132 283.112Z" fill="white"/>
<path opacity="0.29" d="M563.395 200.17L562.569 201.742L561.062 202.613L562.569 203.483L563.395 205.074L564.221 203.483L565.71 202.613L564.221 201.742L563.395 200.17Z" fill="#FEA7AF"/>
<path opacity="0.29" d="M544.083 272.587L543.257 274.177L541.75 275.048L543.257 275.9L544.083 277.49L544.891 275.9L546.398 275.048L544.891 274.177L544.083 272.587Z" fill="#FEA7AF"/>
<path opacity="0.29" d="M522.437 56.0588L520.947 58.9366L518.219 60.5269L520.947 62.0982L522.437 64.9759L523.945 62.0982L526.673 60.5269L523.945 58.9366L522.437 56.0588Z" fill="#FEA7AF"/>
<path d="M681.349 214.086L679.303 218.043L675.57 220.201L679.303 222.359L681.349 226.297L683.396 222.359L687.147 220.201L683.396 218.043L681.349 214.086Z" fill="white"/>
<path d="M339.871 207.81L339.153 209.211L337.825 209.969L339.153 210.745L339.871 212.127L340.589 210.745L341.917 209.969L340.589 209.211L339.871 207.81Z" fill="white"/>
<path opacity="0.33" d="M438.746 221.772L437.813 223.571L436.108 224.536L437.813 225.521L438.746 227.319L439.679 225.521L441.384 224.536L439.679 223.571L438.746 221.772Z" fill="#FEA7AF"/>
<path opacity="0.33" d="M395.222 276.713L394.289 278.512L392.584 279.496L394.289 280.462L395.222 282.261L396.155 280.462L397.842 279.496L396.155 278.512L395.222 276.713Z" fill="#FEA7AF"/>
<path opacity="0.33" d="M445.638 78.1392L444.704 79.9188L442.999 80.9033L444.704 81.8878L445.638 83.6863L446.571 81.8878L448.276 80.9033L446.571 79.9188L445.638 78.1392Z" fill="#FEA7AF"/>
<path opacity="0.33" d="M544.083 116.793L543.149 118.591L541.444 119.576L543.149 120.56L544.083 122.34L544.998 120.56L546.703 119.576L544.998 118.591L544.083 116.793Z" fill="#FEA7AF"/>
<g opacity="0.35">
<g opacity="0.35">
<path opacity="0.35" d="M567.004 189.222L473.908 279.377C473.387 279.889 473.351 280.722 473.818 281.29C474.285 281.839 475.092 281.895 475.631 281.422L571.599 194.693C573.071 193.368 573.214 191.021 571.94 189.487C570.648 187.954 568.422 187.84 567.004 189.222Z" fill="url(#paint0_linear_0_1)"/>
<path opacity="0.35" d="M532.203 223.716L475.164 278.96C474.841 279.263 474.823 279.793 475.11 280.134C475.398 280.475 475.882 280.513 476.223 280.21L535.039 227.067C535.936 226.253 536.026 224.814 535.236 223.886C534.447 222.94 533.083 222.864 532.203 223.716Z" fill="url(#paint1_linear_0_1)"/>
</g>
<path opacity="0.35" d="M598.808 198.991L556.092 240.358C555.859 240.585 555.841 240.983 556.056 241.229C556.272 241.475 556.648 241.513 556.882 241.286L600.908 201.49C601.59 200.884 601.662 199.805 601.07 199.105C600.478 198.404 599.455 198.347 598.808 198.991Z" fill="url(#paint2_linear_0_1)"/>
<path opacity="0.35" d="M582.835 214.819L556.667 240.169C556.523 240.302 556.505 240.548 556.649 240.699C556.775 240.851 557.008 240.87 557.152 240.737L584.127 216.352C584.54 215.974 584.576 215.311 584.217 214.895C583.858 214.459 583.23 214.421 582.835 214.819Z" fill="url(#paint3_linear_0_1)"/>
</g>
<path d="M196.529 599.319L194.63 599.397L193.029 598.476L193.022 600.323L192.001 601.926L193.9 601.847L195.501 602.769L195.508 600.921L196.529 599.319Z" fill="#FEA7AF"/>
<path d="M326.482 521.633L324.583 521.712L322.982 520.79L322.975 522.638L321.954 524.241L323.853 524.162L325.454 525.083L325.461 523.236L326.482 521.633Z" fill="#FEA7AF"/>
<path d="M311.104 945.242L309.205 945.321L307.604 944.399L307.597 946.247L306.576 947.85L308.475 947.771L310.076 948.692L310.083 946.845L311.104 945.242Z" fill="#FEA7AF"/>
<path opacity="0.29" d="M451.817 801.03L449.902 801.118L448.308 800.172L448.31 802.034L447.289 803.637L449.179 803.543L450.789 804.48L450.77 802.627L451.817 801.03Z" fill="white"/>
<path opacity="0.29" d="M374.633 750.948L370.86 751.112L367.7 749.265L367.694 752.935L365.659 756.116L369.422 755.937L372.599 757.773L372.589 754.113L374.633 750.948Z" fill="#FEA7AF"/>
<path opacity="0.29" d="M194.807 359.921L191.035 360.084L187.867 358.263L187.868 361.907L185.833 365.088L189.597 364.909L192.757 366.755L192.763 363.086L194.807 359.921Z" fill="white"/>
<path opacity="0.29" d="M215.214 729.539L213.44 729.608L211.933 728.736L211.93 730.477L210.964 731.986L212.754 731.908L214.252 732.764L214.264 731.039L215.214 729.539Z" fill="#FEA7AF"/>
<path opacity="0.29" d="M142.821 748.939L141.031 749.017L139.523 748.145L139.538 749.876L138.571 751.385L140.352 751.292L141.843 752.173L141.845 750.432L142.821 748.939Z" fill="#FEA7AF"/>
<path opacity="0.29" d="M319.663 622.133L316.426 622.278L313.687 620.708L313.686 623.856L311.936 626.583L315.182 626.454L317.905 628.034L317.922 624.876L319.663 622.133Z" fill="#FEA7AF"/>
<path d="M262.013 838.702L257.563 838.904L253.83 836.746L253.823 841.058L251.431 844.796L255.865 844.604L259.607 846.778L259.605 842.45L262.013 838.702Z" fill="white"/>
<path d="M97.0547 539.645L95.4823 539.722L94.1633 538.948L94.1534 540.487L93.3139 541.799L94.8699 541.731L96.2053 542.495L96.1988 540.966L97.0547 539.645Z" fill="white"/>
<path opacity="0.33" d="M462.776 891.314L459.956 891.426L457.577 890.062L457.578 892.795L456.049 895.187L458.885 895.066L461.249 896.439L461.264 893.696L462.776 891.314Z" fill="#FEA7AF"/>
<path opacity="0.33" d="M134.294 632.297L132.269 632.386L130.582 631.39L130.58 633.359L129.487 635.065L131.511 634.976L133.215 635.963L133.201 634.003L134.294 632.297Z" fill="#FEA7AF"/>
<path opacity="0.33" d="M64.9632 621.994L62.9388 622.083L61.2348 621.097L61.2489 623.056L60.1559 624.762L62.1803 624.674L63.8589 625.654L63.8702 623.701L64.9632 621.994Z" fill="#FEA7AF"/>
<path opacity="0.33" d="M262.206 566.597L260.198 566.676L258.494 565.69L258.491 567.658L257.398 569.365L259.423 569.276L261.127 570.262L261.129 568.294L262.206 566.597Z" fill="#FEA7AF"/>
<path opacity="0.33" d="M277.832 671.198L275.807 671.286L274.104 670.3L274.101 672.269L273.025 673.966L275.024 673.871L276.728 674.857L276.73 672.889L277.832 671.198Z" fill="#FEA7AF"/>
<g opacity="0.35">
<g opacity="0.35">
<path opacity="0.35" d="M226.503 727.204L101.919 691.513C101.216 691.317 100.476 691.702 100.217 692.39C99.9738 693.068 100.328 693.796 101.007 694.027L224.054 733.916C225.937 734.53 228.043 733.483 228.736 731.613C229.42 729.728 228.408 727.743 226.503 727.204Z" fill="url(#paint4_linear_0_1)"/>
<path opacity="0.35" d="M179.244 714.257L102.907 692.394C102.483 692.265 102.015 692.514 101.863 692.933C101.711 693.352 101.92 693.791 102.353 693.935L177.755 718.387C178.909 718.758 180.2 718.118 180.61 716.971C181.037 715.814 180.421 714.594 179.244 714.257Z" fill="url(#paint5_linear_0_1)"/>
</g>
<path opacity="0.35" d="M233.907 759.64L176.743 743.264C176.429 743.175 176.076 743.358 175.97 743.667C175.864 743.977 176.019 744.322 176.333 744.411L232.789 762.707C233.654 762.996 234.625 762.519 234.937 761.656C235.248 760.794 234.787 759.879 233.907 759.64Z" fill="url(#paint6_linear_0_1)"/>
<path opacity="0.35" d="M212.22 753.695L177.193 743.668C177.007 743.609 176.784 743.717 176.725 743.917C176.656 744.101 176.756 744.313 176.943 744.371L211.536 755.58C212.07 755.749 212.662 755.45 212.844 754.931C213.042 754.402 212.761 753.839 212.22 753.695Z" fill="url(#paint7_linear_0_1)"/>
</g>
<defs>
<linearGradient id="paint0_linear_0_1" x1="473.884" y1="281.362" x2="576.522" y2="194.928" gradientUnits="userSpaceOnUse">
<stop offset="0.00537634" stop-color="#FEA7AF"/>
<stop offset="0.9946" stop-color="#EA47AC" stop-opacity="0"/>
</linearGradient>
<linearGradient id="paint1_linear_0_1" x1="475.146" y1="280.177" x2="538.043" y2="227.21" gradientUnits="userSpaceOnUse">
<stop offset="0.00537634" stop-color="#FEA7AF"/>
<stop offset="0.9946" stop-color="#EA47AC" stop-opacity="0"/>
</linearGradient>
<linearGradient id="paint2_linear_0_1" x1="556.076" y1="241.267" x2="603.169" y2="201.61" gradientUnits="userSpaceOnUse">
<stop offset="0.00537634" stop-color="#FEA7AF"/>
<stop offset="0.9946" stop-color="#EA47AC" stop-opacity="0"/>
</linearGradient>
<linearGradient id="paint3_linear_0_1" x1="556.656" y1="240.724" x2="585.514" y2="216.422" gradientUnits="userSpaceOnUse">
<stop offset="0.00537634" stop-color="#FEA7AF"/>
<stop offset="0.9946" stop-color="#EA47AC" stop-opacity="0"/>
</linearGradient>
<linearGradient id="paint4_linear_0_1" x1="100.187" y1="692.483" x2="226.307" y2="738.299" gradientUnits="userSpaceOnUse">
<stop offset="0.00537634" stop-color="#FEA7AF"/>
<stop offset="0.9946" stop-color="#EA47AC" stop-opacity="0"/>
</linearGradient>
<linearGradient id="paint5_linear_0_1" x1="101.844" y1="692.986" x2="179.13" y2="721.062" gradientUnits="userSpaceOnUse">
<stop offset="0.00537634" stop-color="#FEA7AF"/>
<stop offset="0.9946" stop-color="#EA47AC" stop-opacity="0"/>
</linearGradient>
<linearGradient id="paint6_linear_0_1" x1="175.947" y1="743.704" x2="233.813" y2="764.725" gradientUnits="userSpaceOnUse">
<stop offset="0.00537634" stop-color="#FEA7AF"/>
<stop offset="0.9946" stop-color="#EA47AC" stop-opacity="0"/>
</linearGradient>
<linearGradient id="paint7_linear_0_1" x1="176.707" y1="743.935" x2="212.167" y2="756.817" gradientUnits="userSpaceOnUse">
<stop offset="0.00537634" stop-color="#FEA7AF"/>
<stop offset="0.9946" stop-color="#EA47AC" stop-opacity="0"/>
</linearGradient>
</defs>
</svg>
