<svg width="1210" height="611" viewBox="0 0 1210 611" fill="none" xmlns="http://www.w3.org/2000/svg">
<path d="M448.991 468.202L448.112 469.887L446.514 470.815L448.112 471.743L448.991 473.428L449.871 471.743L451.468 470.815L449.871 469.887L448.991 468.202Z" fill="#FEA7AF"/>
<path d="M446.515 316.82L445.636 318.505L444.038 319.432L445.636 320.36L446.515 322.045L447.395 320.36L448.992 319.432L447.395 318.505L446.515 316.82Z" fill="#FEA7AF"/>
<path d="M805.942 541.526L805.063 543.211L803.466 544.139L805.063 545.067L805.942 546.752L806.822 545.067L808.419 544.139L806.822 543.211L805.942 541.526Z" fill="#FEA7AF"/>
<path opacity="0.29" d="M751.183 347.622L750.304 349.326L748.688 350.235L750.304 351.163L751.183 352.848L752.045 351.163L753.66 350.235L752.045 349.326L751.183 347.622Z" fill="white"/>
<path opacity="0.29" d="M669.267 389.52L667.526 392.871L664.35 394.688L667.526 396.525L669.267 399.876L670.99 396.525L674.167 394.688L670.99 392.871L669.267 389.52Z" fill="#FEA7AF"/>
<path opacity="0.29" d="M240.669 350.236L238.928 353.587L235.769 355.423L238.928 357.241L240.669 360.592L242.392 357.241L245.569 355.423L242.392 353.587L240.669 350.236Z" fill="white"/>
<path opacity="0.29" d="M254.901 599.932L253.161 603.283L250.002 605.119L253.161 606.937L254.901 610.288L256.642 606.937L259.801 605.119L256.642 603.283L254.901 599.932Z" fill="white"/>
<path opacity="0.29" d="M571.164 516.99L570.338 518.561L568.831 519.432L570.338 520.303L571.164 521.894L571.99 520.303L573.479 519.432L571.99 518.561L571.164 516.99Z" fill="#FEA7AF"/>
<path opacity="0.29" d="M551.852 589.406L551.027 590.997L549.519 591.868L551.027 592.72L551.852 594.31L552.66 592.72L554.167 591.868L552.66 590.997L551.852 589.406Z" fill="#FEA7AF"/>
<path opacity="0.29" d="M530.206 372.879L528.717 375.756L525.989 377.347L528.717 378.918L530.206 381.796L531.714 378.918L534.442 377.347L531.714 375.756L530.206 372.879Z" fill="#FEA7AF"/>
<path d="M689.119 530.905L687.072 534.862L683.339 537.021L687.072 539.179L689.119 543.117L691.165 539.179L694.916 537.021L691.165 534.862L689.119 530.905Z" fill="white"/>
<path d="M347.64 524.63L346.922 526.031L345.594 526.788L346.922 527.565L347.64 528.947L348.358 527.565L349.686 526.788L348.358 526.031L347.64 524.63Z" fill="white"/>
<path opacity="0.33" d="M834.892 383.177L833.582 385.676L831.213 387.058L833.582 388.421L834.892 390.939L836.202 388.421L838.571 387.058L836.202 385.676L834.892 383.177Z" fill="#FEA7AF"/>
<path opacity="0.33" d="M446.515 538.592L445.582 540.39L443.877 541.356L445.582 542.34L446.515 544.139L447.448 542.34L449.153 541.356L447.448 540.39L446.515 538.592Z" fill="#FEA7AF"/>
<path opacity="0.33" d="M402.991 593.533L402.058 595.332L400.353 596.316L402.058 597.282L402.991 599.08L403.924 597.282L405.612 596.316L403.924 595.332L402.991 593.533Z" fill="#FEA7AF"/>
<path opacity="0.33" d="M453.407 394.959L452.473 396.739L450.768 397.723L452.473 398.707L453.407 400.506L454.34 398.707L456.045 397.723L454.34 396.739L453.407 394.959Z" fill="#FEA7AF"/>
<path opacity="0.33" d="M551.852 433.613L550.918 435.411L549.213 436.396L550.918 437.38L551.852 439.16L552.767 437.38L554.472 436.396L552.767 435.411L551.852 433.613Z" fill="#FEA7AF"/>
<g opacity="0.35">
<g opacity="0.35">
<path opacity="0.35" d="M574.773 506.042L481.677 596.197C481.156 596.708 481.12 597.541 481.587 598.109C482.054 598.658 482.861 598.715 483.4 598.242L579.368 511.513C580.84 510.188 580.983 507.84 579.709 506.307C578.417 504.773 576.191 504.66 574.773 506.042Z" fill="url(#paint0_linear_0_1)"/>
<path opacity="0.35" d="M539.972 540.536L482.933 595.78C482.61 596.083 482.592 596.613 482.879 596.954C483.167 597.294 483.651 597.332 483.992 597.029L542.808 543.887C543.705 543.072 543.795 541.634 543.005 540.706C542.216 539.759 540.852 539.684 539.972 540.536Z" fill="url(#paint1_linear_0_1)"/>
</g>
<path opacity="0.35" d="M606.578 515.811L563.861 557.178C563.628 557.405 563.61 557.803 563.825 558.049C564.041 558.295 564.418 558.333 564.651 558.106L608.678 518.31C609.36 517.704 609.431 516.625 608.839 515.924C608.247 515.224 607.224 515.167 606.578 515.811Z" fill="url(#paint2_linear_0_1)"/>
<path opacity="0.35" d="M590.604 531.639L564.436 556.989C564.292 557.121 564.274 557.367 564.418 557.519C564.544 557.67 564.777 557.689 564.921 557.557L591.896 533.172C592.309 532.793 592.345 532.131 591.986 531.714C591.627 531.279 590.999 531.241 590.604 531.639Z" fill="url(#paint3_linear_0_1)"/>
</g>
<path d="M216.005 582.263C205.227 582.263 196.49 573.048 196.49 561.68C196.49 550.312 205.227 541.097 216.005 541.097C226.783 541.097 235.521 550.312 235.521 561.68C235.521 573.048 226.783 582.263 216.005 582.263Z" fill="url(#paint4_linear_0_1)"/>
<path d="M0.103531 467.007C0.103531 462.874 0.690155 458.9 1.79514 455.126C7.08814 437.158 24.0858 424 44.2346 424C66.7572 424 85.3509 440.453 88.0384 461.678C88.2703 463.432 88.3794 465.2 88.3794 467.007C88.3794 473.998 86.6742 480.589 83.6184 486.424C76.3474 500.405 61.4369 510 44.2483 510C26.2548 510 10.7577 499.515 3.89594 484.457C1.4677 479.141 0.103531 473.227 0.103531 467.007Z" fill="url(#paint5_linear_0_1)"/>
<path d="M0.103531 467.007C0.103531 462.874 0.690155 458.9 1.79514 455.126C7.08814 437.158 24.0858 424 44.2346 424C66.7572 424 85.3509 440.453 88.0384 461.678C88.2703 463.432 88.3794 465.2 88.3794 467.007C88.3794 473.998 86.6742 480.589 83.6184 486.424C76.3474 500.405 61.4369 510 44.2483 510C26.2548 510 10.7577 499.515 3.89594 484.457C1.4677 479.141 0.103531 473.227 0.103531 467.007Z" fill="url(#paint6_linear_0_1)"/>
<path d="M0.103531 467.007C0.103531 462.874 0.690155 458.9 1.79514 455.126C7.08814 437.158 24.0858 424 44.2346 424C66.7572 424 85.3509 440.453 88.0384 461.678C88.2703 463.432 88.3794 465.2 88.3794 467.007C88.3794 473.998 86.6742 480.589 83.6184 486.424C76.3474 500.405 61.4369 510 44.2483 510C26.2548 510 10.7577 499.515 3.89594 484.457C1.4677 479.141 0.103531 473.227 0.103531 467.007Z" fill="url(#paint7_linear_0_1)"/>
<path d="M821.556 151.383L820.679 153.068L819.087 153.995L820.679 154.923L821.556 156.608L822.432 154.923L824.025 153.995L822.432 153.068L821.556 151.383Z" fill="#FEA7AF"/>
<path d="M819.087 0L818.211 1.68496L816.618 2.61265L818.211 3.54034L819.087 5.2253L819.964 3.54034L821.556 2.61265L819.964 1.68496L819.087 0Z" fill="#FEA7AF"/>
<path d="M1177.39 224.707L1176.51 226.392L1174.92 227.319L1176.51 228.247L1177.39 229.932L1178.27 228.247L1179.86 227.319L1178.27 226.392L1177.39 224.707Z" fill="#FEA7AF"/>
<path opacity="0.29" d="M1122.8 30.8027L1121.93 32.5066L1120.32 33.4154L1121.93 34.3431L1122.8 36.028L1123.66 34.3431L1125.27 33.4154L1123.66 32.5066L1122.8 30.8027Z" fill="white"/>
<path opacity="0.29" d="M1041.14 72.7L1039.41 76.0509L1036.24 77.8684L1039.41 79.7048L1041.14 83.0558L1042.86 79.7048L1046.03 77.8684L1042.86 76.0509L1041.14 72.7Z" fill="#FEA7AF"/>
<path opacity="0.29" d="M613.885 33.4158L612.149 36.7668L609 38.6032L612.149 40.4207L613.885 43.7718L615.602 40.4207L618.769 38.6032L615.602 36.7668L613.885 33.4158Z" fill="white"/>
<path opacity="0.29" d="M628.073 283.112L626.337 286.463L623.188 288.3L626.337 290.117L628.073 293.468L629.808 290.117L632.957 288.3L629.808 286.463L628.073 283.112Z" fill="white"/>
<path opacity="0.29" d="M943.347 200.17L942.524 201.742L941.021 202.613L942.524 203.483L943.347 205.074L944.17 203.483L945.655 202.613L944.17 201.742L943.347 200.17Z" fill="#FEA7AF"/>
<path opacity="0.29" d="M924.095 272.587L923.272 274.177L921.769 275.048L923.272 275.9L924.095 277.49L924.9 275.9L926.403 275.048L924.9 274.177L924.095 272.587Z" fill="#FEA7AF"/>
<path opacity="0.29" d="M902.517 56.0588L901.032 58.9366L898.313 60.5269L901.032 62.0982L902.517 64.9759L904.02 62.0982L906.74 60.5269L904.02 58.9366L902.517 56.0588Z" fill="#FEA7AF"/>
<path d="M1060.93 214.086L1058.89 218.043L1055.17 220.201L1058.89 222.359L1060.93 226.297L1062.97 222.359L1066.71 220.201L1062.97 218.043L1060.93 214.086Z" fill="white"/>
<path d="M720.521 207.81L719.806 209.211L718.482 209.969L719.806 210.745L720.521 212.127L721.237 210.745L722.561 209.969L721.237 209.211L720.521 207.81Z" fill="white"/>
<path opacity="0.33" d="M1206.25 66.3573L1204.94 68.8564L1202.58 70.2384L1204.94 71.6015L1206.25 74.1195L1207.56 71.6015L1209.92 70.2384L1207.56 68.8564L1206.25 66.3573Z" fill="#FEA7AF"/>
<path opacity="0.33" d="M819.087 221.772L818.157 223.571L816.457 224.536L818.157 225.521L819.087 227.319L820.018 225.521L821.718 224.536L820.018 223.571L819.087 221.772Z" fill="#FEA7AF"/>
<path opacity="0.33" d="M775.699 276.713L774.769 278.512L773.069 279.496L774.769 280.462L775.699 282.261L776.63 280.462L778.312 279.496L776.63 278.512L775.699 276.713Z" fill="#FEA7AF"/>
<path opacity="0.33" d="M825.957 78.1392L825.027 79.9188L823.327 80.9033L825.027 81.8878L825.957 83.6863L826.888 81.8878L828.587 80.9033L826.888 79.9188L825.957 78.1392Z" fill="#FEA7AF"/>
<path opacity="0.33" d="M924.095 116.793L923.164 118.592L921.465 119.576L923.164 120.561L924.095 122.34L925.007 120.561L926.707 119.576L925.007 118.592L924.095 116.793Z" fill="#FEA7AF"/>
<g opacity="0.35">
<g opacity="0.35">
<path opacity="0.35" d="M946.945 189.222L854.139 279.377C853.62 279.889 853.585 280.722 854.05 281.29C854.515 281.839 855.32 281.895 855.857 281.422L951.525 194.693C952.992 193.368 953.136 191.021 951.865 189.487C950.577 187.954 948.358 187.84 946.945 189.222Z" fill="url(#paint8_linear_0_1)"/>
<path opacity="0.35" d="M912.252 223.716L855.392 278.96C855.07 279.263 855.052 279.793 855.338 280.134C855.624 280.475 856.107 280.513 856.447 280.21L915.079 227.067C915.974 226.253 916.063 224.814 915.276 223.886C914.489 222.94 913.129 222.864 912.252 223.716Z" fill="url(#paint9_linear_0_1)"/>
</g>
<path opacity="0.35" d="M978.65 198.991L936.067 240.358C935.834 240.585 935.816 240.983 936.031 241.229C936.246 241.475 936.622 241.513 936.854 241.286L980.743 201.49C981.423 200.884 981.495 199.805 980.904 199.105C980.314 198.404 979.294 198.347 978.65 198.991Z" fill="url(#paint10_linear_0_1)"/>
<path opacity="0.35" d="M962.726 214.819L936.64 240.169C936.497 240.302 936.479 240.548 936.622 240.699C936.747 240.851 936.98 240.87 937.123 240.737L964.014 216.352C964.426 215.974 964.462 215.311 964.104 214.895C963.746 214.459 963.12 214.421 962.726 214.819Z" fill="url(#paint11_linear_0_1)"/>
</g>
<defs>
<linearGradient id="paint0_linear_0_1" x1="481.653" y1="598.182" x2="584.291" y2="511.748" gradientUnits="userSpaceOnUse">
<stop offset="0.00537634" stop-color="#FEA7AF"/>
<stop offset="0.9946" stop-color="#EA47AC" stop-opacity="0"/>
</linearGradient>
<linearGradient id="paint1_linear_0_1" x1="482.915" y1="596.997" x2="545.812" y2="544.03" gradientUnits="userSpaceOnUse">
<stop offset="0.00537634" stop-color="#FEA7AF"/>
<stop offset="0.9946" stop-color="#EA47AC" stop-opacity="0"/>
</linearGradient>
<linearGradient id="paint2_linear_0_1" x1="563.845" y1="558.087" x2="610.938" y2="518.429" gradientUnits="userSpaceOnUse">
<stop offset="0.00537634" stop-color="#FEA7AF"/>
<stop offset="0.9946" stop-color="#EA47AC" stop-opacity="0"/>
</linearGradient>
<linearGradient id="paint3_linear_0_1" x1="564.425" y1="557.544" x2="593.283" y2="533.241" gradientUnits="userSpaceOnUse">
<stop offset="0.00537634" stop-color="#FEA7AF"/>
<stop offset="0.9946" stop-color="#EA47AC" stop-opacity="0"/>
</linearGradient>
<linearGradient id="paint4_linear_0_1" x1="224.999" y1="545.051" x2="205.357" y2="577.683" gradientUnits="userSpaceOnUse">
<stop offset="0.00537634" stop-color="#FEA7AF"/>
<stop offset="0.9731" stop-color="#EA47AC"/>
</linearGradient>
<linearGradient id="paint5_linear_0_1" x1="88.381" y1="467.008" x2="0.106946" y2="467.008" gradientUnits="userSpaceOnUse">
<stop offset="0.00537634" stop-color="#FEA7AF"/>
<stop offset="0.9731" stop-color="#EA47AC"/>
</linearGradient>
<linearGradient id="paint6_linear_0_1" x1="88.3809" y1="466.989" x2="0.100658" y2="466.989" gradientUnits="userSpaceOnUse">
<stop offset="0.00537634" stop-color="#FEA7AF"/>
<stop offset="0.0453" stop-color="#FDA1AF"/>
<stop offset="0.3245" stop-color="#F57AAE"/>
<stop offset="0.5813" stop-color="#EF5EAD"/>
<stop offset="0.8058" stop-color="#EB4DAC"/>
<stop offset="0.9731" stop-color="#EA47AC"/>
</linearGradient>
<linearGradient id="paint7_linear_0_1" x1="94.178" y1="480.279" x2="-0.752971" y2="458.574" gradientUnits="userSpaceOnUse">
<stop offset="0.00537634" stop-color="#DE3DBF"/>
<stop offset="0.1162" stop-color="#C337B8"/>
<stop offset="0.2799" stop-color="#A22FAE"/>
<stop offset="0.4483" stop-color="#8829A7"/>
<stop offset="0.6212" stop-color="#7624A2"/>
<stop offset="0.8012" stop-color="#6B229F"/>
<stop offset="1" stop-color="#67219E"/>
</linearGradient>
<linearGradient id="paint8_linear_0_1" x1="854.115" y1="281.362" x2="956.698" y2="195.244" gradientUnits="userSpaceOnUse">
<stop offset="0.00537634" stop-color="#FEA7AF"/>
<stop offset="0.9946" stop-color="#EA47AC" stop-opacity="0"/>
</linearGradient>
<linearGradient id="paint9_linear_0_1" x1="855.374" y1="280.177" x2="918.237" y2="227.404" gradientUnits="userSpaceOnUse">
<stop offset="0.00537634" stop-color="#FEA7AF"/>
<stop offset="0.9946" stop-color="#EA47AC" stop-opacity="0"/>
</linearGradient>
<linearGradient id="paint10_linear_0_1" x1="936.051" y1="241.267" x2="983.118" y2="201.755" gradientUnits="userSpaceOnUse">
<stop offset="0.00537634" stop-color="#FEA7AF"/>
<stop offset="0.9946" stop-color="#EA47AC" stop-opacity="0"/>
</linearGradient>
<linearGradient id="paint11_linear_0_1" x1="936.629" y1="240.724" x2="965.472" y2="216.511" gradientUnits="userSpaceOnUse">
<stop offset="0.00537634" stop-color="#FEA7AF"/>
<stop offset="0.9946" stop-color="#EA47AC" stop-opacity="0"/>
</linearGradient>
</defs>
</svg>
