<svg width="196" height="214" viewBox="0 0 196 214" fill="none" xmlns="http://www.w3.org/2000/svg">
<path d="M18.1677 148L17.9999 180" stroke="#333333" stroke-width="3" stroke-linecap="round"/>
<path d="M19.5225 32L19.0001 63.9957" stroke="#333333" stroke-width="3" stroke-linecap="round"/>
<path d="M18.3452 90.998L18.1774 122.998" stroke="#333333" stroke-width="3" stroke-linecap="round"/>
<circle cx="19" cy="18" r="16" fill="#A990DD"/>
<path d="M16.7441 14.68L19.7521 13.72H21.1281V25H19.1761V15.72L17.1601 16.28L16.7441 14.68Z" fill="#FCFCFC"/>
<path d="M56.2 12.268C57.384 12.268 58.4187 12.5027 59.304 12.972C60.1893 13.4413 60.872 14.1027 61.352 14.956C61.8427 15.7987 62.088 16.7747 62.088 17.884C62.088 18.9827 61.8427 19.9587 61.352 20.812C60.872 21.6653 60.184 22.3267 59.288 22.796C58.4027 23.2653 57.3733 23.5 56.2 23.5H51.992V12.268H56.2ZM56.024 21.132C57.0587 21.132 57.864 20.8493 58.44 20.284C59.016 19.7187 59.304 18.9187 59.304 17.884C59.304 16.8493 59.016 16.044 58.44 15.468C57.864 14.892 57.0587 14.604 56.024 14.604H54.728V21.132H56.024ZM72.033 18.892C72.033 19.148 72.017 19.4147 71.985 19.692H65.793C65.8357 20.2467 66.0117 20.6733 66.321 20.972C66.641 21.26 67.0303 21.404 67.489 21.404C68.1717 21.404 68.6463 21.116 68.913 20.54H71.825C71.6757 21.1267 71.4037 21.6547 71.009 22.124C70.625 22.5933 70.1397 22.9613 69.553 23.228C68.9663 23.4947 68.3103 23.628 67.585 23.628C66.7103 23.628 65.9317 23.4413 65.249 23.068C64.5663 22.6947 64.033 22.1613 63.649 21.468C63.265 20.7747 63.073 19.964 63.073 19.036C63.073 18.108 63.2597 17.2973 63.633 16.604C64.017 15.9107 64.5503 15.3773 65.233 15.004C65.9157 14.6307 66.6997 14.444 67.585 14.444C68.449 14.444 69.217 14.6253 69.889 14.988C70.561 15.3507 71.0837 15.868 71.457 16.54C71.841 17.212 72.033 17.996 72.033 18.892ZM69.233 18.172C69.233 17.7027 69.073 17.3293 68.753 17.052C68.433 16.7747 68.033 16.636 67.553 16.636C67.0943 16.636 66.705 16.7693 66.385 17.036C66.0757 17.3027 65.8837 17.6813 65.809 18.172H69.233ZM77.1084 23.628C76.3297 23.628 75.6364 23.4947 75.0284 23.228C74.4204 22.9613 73.9404 22.5987 73.5884 22.14C73.2364 21.6707 73.039 21.148 72.9964 20.572H75.7004C75.7324 20.8813 75.8764 21.132 76.1324 21.324C76.3884 21.516 76.703 21.612 77.0764 21.612C77.4177 21.612 77.679 21.548 77.8604 21.42C78.0524 21.2813 78.1484 21.1053 78.1484 20.892C78.1484 20.636 78.015 20.4493 77.7484 20.332C77.4817 20.204 77.0497 20.0653 76.4524 19.916C75.8124 19.7667 75.279 19.612 74.8524 19.452C74.4257 19.2813 74.0577 19.02 73.7484 18.668C73.439 18.3053 73.2844 17.82 73.2844 17.212C73.2844 16.7 73.423 16.236 73.7004 15.82C73.9884 15.3933 74.4044 15.0573 74.9484 14.812C75.503 14.5667 76.159 14.444 76.9164 14.444C78.0364 14.444 78.9164 14.7213 79.5564 15.276C80.207 15.8307 80.5804 16.5667 80.6764 17.484H78.1484C78.1057 17.1747 77.967 16.9293 77.7324 16.748C77.5084 16.5667 77.2097 16.476 76.8364 16.476C76.5164 16.476 76.271 16.54 76.1004 16.668C75.9297 16.7853 75.8444 16.9507 75.8444 17.164C75.8444 17.42 75.9777 17.612 76.2444 17.74C76.5217 17.868 76.9484 17.996 77.5244 18.124C78.1857 18.2947 78.7244 18.4653 79.1404 18.636C79.5564 18.796 79.919 19.0627 80.2284 19.436C80.5484 19.7987 80.7137 20.2893 80.7244 20.908C80.7244 21.4307 80.575 21.9 80.2764 22.316C79.9884 22.7213 79.567 23.0413 79.0124 23.276C78.4684 23.5107 77.8337 23.628 77.1084 23.628ZM81.8543 19.036C81.8543 18.108 82.0409 17.2973 82.4143 16.604C82.7983 15.9107 83.3263 15.3773 83.9983 15.004C84.6809 14.6307 85.4596 14.444 86.3343 14.444C87.4543 14.444 88.3876 14.7373 89.1343 15.324C89.8916 15.9107 90.3876 16.7373 90.6223 17.804H87.7103C87.4649 17.1213 86.9903 16.78 86.2863 16.78C85.7849 16.78 85.3849 16.9773 85.0863 17.372C84.7876 17.756 84.6383 18.3107 84.6383 19.036C84.6383 19.7613 84.7876 20.3213 85.0863 20.716C85.3849 21.1 85.7849 21.292 86.2863 21.292C86.9903 21.292 87.4649 20.9507 87.7103 20.268H90.6223C90.3876 21.3133 89.8916 22.1347 89.1343 22.732C88.3769 23.3293 87.4436 23.628 86.3343 23.628C85.4596 23.628 84.6809 23.4413 83.9983 23.068C83.3263 22.6947 82.7983 22.1613 82.4143 21.468C82.0409 20.7747 81.8543 19.964 81.8543 19.036ZM96.1498 23.628C95.2751 23.628 94.4858 23.4413 93.7818 23.068C93.0884 22.6947 92.5391 22.1613 92.1338 21.468C91.7391 20.7747 91.5418 19.964 91.5418 19.036C91.5418 18.1187 91.7444 17.3133 92.1497 16.62C92.5551 15.916 93.1098 15.3773 93.8138 15.004C94.5178 14.6307 95.3071 14.444 96.1818 14.444C97.0564 14.444 97.8458 14.6307 98.5498 15.004C99.2538 15.3773 99.8084 15.916 100.214 16.62C100.619 17.3133 100.822 18.1187 100.822 19.036C100.822 19.9533 100.614 20.764 100.198 21.468C99.7924 22.1613 99.2324 22.6947 98.5178 23.068C97.8138 23.4413 97.0244 23.628 96.1498 23.628ZM96.1498 21.26C96.6724 21.26 97.1151 21.068 97.4778 20.684C97.8511 20.3 98.0378 19.7507 98.0378 19.036C98.0378 18.3213 97.8564 17.772 97.4938 17.388C97.1418 17.004 96.7044 16.812 96.1818 16.812C95.6484 16.812 95.2058 17.004 94.8538 17.388C94.5018 17.7613 94.3258 18.3107 94.3258 19.036C94.3258 19.7507 94.4964 20.3 94.8378 20.684C95.1898 21.068 95.6271 21.26 96.1498 21.26ZM105.009 15.836C105.265 15.42 105.633 15.084 106.113 14.828C106.593 14.572 107.143 14.444 107.761 14.444C108.497 14.444 109.164 14.6307 109.761 15.004C110.359 15.3773 110.828 15.9107 111.169 16.604C111.521 17.2973 111.697 18.1027 111.697 19.02C111.697 19.9373 111.521 20.748 111.169 21.452C110.828 22.1453 110.359 22.684 109.761 23.068C109.164 23.4413 108.497 23.628 107.761 23.628C107.132 23.628 106.583 23.5053 106.113 23.26C105.644 23.004 105.276 22.668 105.009 22.252V23.5H102.273V11.66H105.009V15.836ZM108.913 19.02C108.913 18.3373 108.721 17.804 108.337 17.42C107.964 17.0253 107.5 16.828 106.945 16.828C106.401 16.828 105.937 17.0253 105.553 17.42C105.18 17.8147 104.993 18.3533 104.993 19.036C104.993 19.7187 105.18 20.2573 105.553 20.652C105.937 21.0467 106.401 21.244 106.945 21.244C107.489 21.244 107.953 21.0467 108.337 20.652C108.721 20.2467 108.913 19.7027 108.913 19.02ZM121.549 18.892C121.549 19.148 121.533 19.4147 121.501 19.692H115.309C115.351 20.2467 115.527 20.6733 115.837 20.972C116.157 21.26 116.546 21.404 117.005 21.404C117.687 21.404 118.162 21.116 118.429 20.54H121.341C121.191 21.1267 120.919 21.6547 120.525 22.124C120.141 22.5933 119.655 22.9613 119.069 23.228C118.482 23.4947 117.826 23.628 117.101 23.628C116.226 23.628 115.447 23.4413 114.765 23.068C114.082 22.6947 113.549 22.1613 113.165 21.468C112.781 20.7747 112.589 19.964 112.589 19.036C112.589 18.108 112.775 17.2973 113.149 16.604C113.533 15.9107 114.066 15.3773 114.749 15.004C115.431 14.6307 116.215 14.444 117.101 14.444C117.965 14.444 118.733 14.6253 119.405 14.988C120.077 15.3507 120.599 15.868 120.973 16.54C121.357 17.212 121.549 17.996 121.549 18.892ZM118.749 18.172C118.749 17.7027 118.589 17.3293 118.269 17.052C117.949 16.7747 117.549 16.636 117.069 16.636C116.61 16.636 116.221 16.7693 115.901 17.036C115.591 17.3027 115.399 17.6813 115.325 18.172H118.749ZM125.728 16.06C126.048 15.5693 126.448 15.1853 126.928 14.908C127.408 14.62 127.941 14.476 128.528 14.476V17.372H127.776C127.093 17.372 126.581 17.5213 126.24 17.82C125.899 18.108 125.728 18.62 125.728 19.356V23.5H122.992V14.572H125.728V16.06ZM134.812 21.18V23.5H133.42C132.428 23.5 131.654 23.26 131.1 22.78C130.545 22.2893 130.268 21.4947 130.268 20.396V16.844H129.18V14.572H130.268V12.396H133.004V14.572H134.796V16.844H133.004V20.428C133.004 20.6947 133.068 20.8867 133.196 21.004C133.324 21.1213 133.537 21.18 133.836 21.18H134.812ZM135.792 19.02C135.792 18.1027 135.962 17.2973 136.304 16.604C136.656 15.9107 137.13 15.3773 137.728 15.004C138.325 14.6307 138.992 14.444 139.728 14.444C140.357 14.444 140.906 14.572 141.376 14.828C141.856 15.084 142.224 15.42 142.48 15.836V14.572H145.216V23.5H142.48V22.236C142.213 22.652 141.84 22.988 141.36 23.244C140.89 23.5 140.341 23.628 139.712 23.628C138.986 23.628 138.325 23.4413 137.728 23.068C137.13 22.684 136.656 22.1453 136.304 21.452C135.962 20.748 135.792 19.9373 135.792 19.02ZM142.48 19.036C142.48 18.3533 142.288 17.8147 141.904 17.42C141.53 17.0253 141.072 16.828 140.528 16.828C139.984 16.828 139.52 17.0253 139.136 17.42C138.762 17.804 138.576 18.3373 138.576 19.02C138.576 19.7027 138.762 20.2467 139.136 20.652C139.52 21.0467 139.984 21.244 140.528 21.244C141.072 21.244 141.53 21.0467 141.904 20.652C142.288 20.2573 142.48 19.7187 142.48 19.036Z" fill="url(#paint0_radial_0_1)"/>
<circle cx="19" cy="132" r="16" fill="#A990DD"/>
<path d="M20.7147 129.512H15.8667V127.8H23.2747V129.272L20.1547 132.472C20.5814 132.525 20.992 132.627 21.3867 132.776C21.792 132.915 22.144 133.112 22.4427 133.368C22.752 133.613 22.9974 133.923 23.1787 134.296C23.36 134.669 23.4507 135.117 23.4507 135.64C23.4507 136.163 23.3547 136.643 23.1627 137.08C22.9707 137.507 22.704 137.88 22.3627 138.2C22.0214 138.509 21.6054 138.755 21.1147 138.936C20.6347 139.107 20.1067 139.192 19.5307 139.192C18.5494 139.192 17.7067 139.011 17.0027 138.648C16.3094 138.275 15.7227 137.8 15.2427 137.224L16.6187 135.944C17.024 136.424 17.456 136.792 17.9147 137.048C18.384 137.293 18.9334 137.416 19.5627 137.416C20.1174 137.416 20.576 137.261 20.9387 136.952C21.312 136.643 21.4987 136.227 21.4987 135.704C21.4987 135.139 21.2694 134.707 20.8107 134.408C20.352 134.109 19.7227 133.96 18.9227 133.96H18.0107L17.6907 132.728L20.7147 129.512Z" fill="#FCFCFC"/>
<path d="M56.2 126.268C57.384 126.268 58.4187 126.503 59.304 126.972C60.1893 127.441 60.872 128.103 61.352 128.956C61.8427 129.799 62.088 130.775 62.088 131.884C62.088 132.983 61.8427 133.959 61.352 134.812C60.872 135.665 60.184 136.327 59.288 136.796C58.4027 137.265 57.3733 137.5 56.2 137.5H51.992V126.268H56.2ZM56.024 135.132C57.0587 135.132 57.864 134.849 58.44 134.284C59.016 133.719 59.304 132.919 59.304 131.884C59.304 130.849 59.016 130.044 58.44 129.468C57.864 128.892 57.0587 128.604 56.024 128.604H54.728V135.132H56.024ZM72.033 132.892C72.033 133.148 72.017 133.415 71.985 133.692H65.793C65.8357 134.247 66.0117 134.673 66.321 134.972C66.641 135.26 67.0303 135.404 67.489 135.404C68.1717 135.404 68.6463 135.116 68.913 134.54H71.825C71.6757 135.127 71.4037 135.655 71.009 136.124C70.625 136.593 70.1397 136.961 69.553 137.228C68.9663 137.495 68.3103 137.628 67.585 137.628C66.7103 137.628 65.9317 137.441 65.249 137.068C64.5663 136.695 64.033 136.161 63.649 135.468C63.265 134.775 63.073 133.964 63.073 133.036C63.073 132.108 63.2597 131.297 63.633 130.604C64.017 129.911 64.5503 129.377 65.233 129.004C65.9157 128.631 66.6997 128.444 67.585 128.444C68.449 128.444 69.217 128.625 69.889 128.988C70.561 129.351 71.0837 129.868 71.457 130.54C71.841 131.212 72.033 131.996 72.033 132.892ZM69.233 132.172C69.233 131.703 69.073 131.329 68.753 131.052C68.433 130.775 68.033 130.636 67.553 130.636C67.0943 130.636 66.705 130.769 66.385 131.036C66.0757 131.303 65.8837 131.681 65.809 132.172H69.233ZM77.1084 137.628C76.3297 137.628 75.6364 137.495 75.0284 137.228C74.4204 136.961 73.9404 136.599 73.5884 136.14C73.2364 135.671 73.039 135.148 72.9964 134.572H75.7004C75.7324 134.881 75.8764 135.132 76.1324 135.324C76.3884 135.516 76.703 135.612 77.0764 135.612C77.4177 135.612 77.679 135.548 77.8604 135.42C78.0524 135.281 78.1484 135.105 78.1484 134.892C78.1484 134.636 78.015 134.449 77.7484 134.332C77.4817 134.204 77.0497 134.065 76.4524 133.916C75.8124 133.767 75.279 133.612 74.8524 133.452C74.4257 133.281 74.0577 133.02 73.7484 132.668C73.439 132.305 73.2844 131.82 73.2844 131.212C73.2844 130.7 73.423 130.236 73.7004 129.82C73.9884 129.393 74.4044 129.057 74.9484 128.812C75.503 128.567 76.159 128.444 76.9164 128.444C78.0364 128.444 78.9164 128.721 79.5564 129.276C80.207 129.831 80.5804 130.567 80.6764 131.484H78.1484C78.1057 131.175 77.967 130.929 77.7324 130.748C77.5084 130.567 77.2097 130.476 76.8364 130.476C76.5164 130.476 76.271 130.54 76.1004 130.668C75.9297 130.785 75.8444 130.951 75.8444 131.164C75.8444 131.42 75.9777 131.612 76.2444 131.74C76.5217 131.868 76.9484 131.996 77.5244 132.124C78.1857 132.295 78.7244 132.465 79.1404 132.636C79.5564 132.796 79.919 133.063 80.2284 133.436C80.5484 133.799 80.7137 134.289 80.7244 134.908C80.7244 135.431 80.575 135.9 80.2764 136.316C79.9884 136.721 79.567 137.041 79.0124 137.276C78.4684 137.511 77.8337 137.628 77.1084 137.628ZM90.8142 132.892C90.8142 133.148 90.7983 133.415 90.7663 133.692H84.5743C84.6169 134.247 84.7929 134.673 85.1023 134.972C85.4223 135.26 85.8116 135.404 86.2703 135.404C86.9529 135.404 87.4276 135.116 87.6943 134.54H90.6063C90.4569 135.127 90.1849 135.655 89.7903 136.124C89.4063 136.593 88.9209 136.961 88.3343 137.228C87.7476 137.495 87.0916 137.628 86.3663 137.628C85.4916 137.628 84.7129 137.441 84.0303 137.068C83.3476 136.695 82.8143 136.161 82.4303 135.468C82.0463 134.775 81.8543 133.964 81.8543 133.036C81.8543 132.108 82.0409 131.297 82.4143 130.604C82.7983 129.911 83.3316 129.377 84.0143 129.004C84.6969 128.631 85.4809 128.444 86.3663 128.444C87.2303 128.444 87.9983 128.625 88.6703 128.988C89.3423 129.351 89.8649 129.868 90.2383 130.54C90.6223 131.212 90.8142 131.996 90.8142 132.892ZM88.0143 132.172C88.0143 131.703 87.8543 131.329 87.5343 131.052C87.2143 130.775 86.8143 130.636 86.3343 130.636C85.8756 130.636 85.4863 130.769 85.1663 131.036C84.8569 131.303 84.6649 131.681 84.5903 132.172H88.0143ZM97.6976 128.476C98.743 128.476 99.575 128.817 100.194 129.5C100.823 130.172 101.138 131.1 101.138 132.284V137.5H98.4176V132.652C98.4176 132.055 98.263 131.591 97.9536 131.26C97.6443 130.929 97.2283 130.764 96.7056 130.764C96.183 130.764 95.767 130.929 95.4576 131.26C95.1483 131.591 94.9936 132.055 94.9936 132.652V137.5H92.2576V128.572H94.9936V129.756C95.271 129.361 95.6443 129.052 96.1136 128.828C96.583 128.593 97.111 128.476 97.6976 128.476ZM107.055 134.94L108.991 128.572H111.903L108.735 137.5H105.359L102.191 128.572H105.119L107.055 134.94ZM117.119 137.628C116.244 137.628 115.455 137.441 114.751 137.068C114.057 136.695 113.508 136.161 113.103 135.468C112.708 134.775 112.511 133.964 112.511 133.036C112.511 132.119 112.713 131.313 113.118 130.62C113.524 129.916 114.079 129.377 114.783 129.004C115.487 128.631 116.276 128.444 117.151 128.444C118.025 128.444 118.815 128.631 119.519 129.004C120.223 129.377 120.777 129.916 121.183 130.62C121.588 131.313 121.791 132.119 121.791 133.036C121.791 133.953 121.583 134.764 121.167 135.468C120.761 136.161 120.201 136.695 119.487 137.068C118.783 137.441 117.993 137.628 117.119 137.628ZM117.119 135.26C117.641 135.26 118.084 135.068 118.447 134.684C118.82 134.3 119.007 133.751 119.007 133.036C119.007 132.321 118.825 131.772 118.463 131.388C118.111 131.004 117.673 130.812 117.151 130.812C116.617 130.812 116.175 131.004 115.823 131.388C115.471 131.761 115.295 132.311 115.295 133.036C115.295 133.751 115.465 134.3 115.807 134.684C116.159 135.068 116.596 135.26 117.119 135.26ZM125.978 125.66V137.5H123.242V125.66H125.978ZM131.977 134.94L133.913 128.572H136.825L133.657 137.5H130.281L127.113 128.572H130.041L131.977 134.94ZM139.352 127.644C138.872 127.644 138.478 127.505 138.168 127.228C137.87 126.94 137.72 126.588 137.72 126.172C137.72 125.745 137.87 125.393 138.168 125.116C138.478 124.828 138.872 124.684 139.352 124.684C139.822 124.684 140.206 124.828 140.504 125.116C140.814 125.393 140.968 125.745 140.968 126.172C140.968 126.588 140.814 126.94 140.504 127.228C140.206 127.505 139.822 127.644 139.352 127.644ZM140.712 128.572V137.5H137.976V128.572H140.712ZM154.087 128.476C155.196 128.476 156.076 128.812 156.727 129.484C157.388 130.156 157.719 131.089 157.719 132.284V137.5H154.999V132.652C154.999 132.076 154.844 131.633 154.535 131.324C154.236 131.004 153.82 130.844 153.287 130.844C152.754 130.844 152.332 131.004 152.023 131.324C151.724 131.633 151.575 132.076 151.575 132.652V137.5H148.855V132.652C148.855 132.076 148.7 131.633 148.391 131.324C148.092 131.004 147.676 130.844 147.143 130.844C146.61 130.844 146.188 131.004 145.879 131.324C145.58 131.633 145.431 132.076 145.431 132.652V137.5H142.695V128.572H145.431V129.692C145.708 129.319 146.071 129.025 146.519 128.812C146.967 128.588 147.474 128.476 148.039 128.476C148.711 128.476 149.308 128.62 149.831 128.908C150.364 129.196 150.78 129.607 151.079 130.14C151.388 129.649 151.81 129.249 152.343 128.94C152.876 128.631 153.458 128.476 154.087 128.476ZM168.049 132.892C168.049 133.148 168.033 133.415 168.001 133.692H161.809C161.851 134.247 162.027 134.673 162.337 134.972C162.657 135.26 163.046 135.404 163.505 135.404C164.187 135.404 164.662 135.116 164.929 134.54H167.841C167.691 135.127 167.419 135.655 167.025 136.124C166.641 136.593 166.155 136.961 165.569 137.228C164.982 137.495 164.326 137.628 163.601 137.628C162.726 137.628 161.947 137.441 161.265 137.068C160.582 136.695 160.049 136.161 159.665 135.468C159.281 134.775 159.089 133.964 159.089 133.036C159.089 132.108 159.275 131.297 159.649 130.604C160.033 129.911 160.566 129.377 161.249 129.004C161.931 128.631 162.715 128.444 163.601 128.444C164.465 128.444 165.233 128.625 165.905 128.988C166.577 129.351 167.099 129.868 167.473 130.54C167.857 131.212 168.049 131.996 168.049 132.892ZM165.249 132.172C165.249 131.703 165.089 131.329 164.769 131.052C164.449 130.775 164.049 130.636 163.569 130.636C163.11 130.636 162.721 130.769 162.401 131.036C162.091 131.303 161.899 131.681 161.825 132.172H165.249ZM174.932 128.476C175.977 128.476 176.809 128.817 177.428 129.5C178.057 130.172 178.372 131.1 178.372 132.284V137.5H175.652V132.652C175.652 132.055 175.497 131.591 175.188 131.26C174.879 130.929 174.463 130.764 173.94 130.764C173.417 130.764 173.001 130.929 172.692 131.26C172.383 131.591 172.228 132.055 172.228 132.652V137.5H169.492V128.572H172.228V129.756C172.505 129.361 172.879 129.052 173.348 128.828C173.817 128.593 174.345 128.476 174.932 128.476ZM185.249 135.18V137.5H183.857C182.865 137.5 182.092 137.26 181.537 136.78C180.983 136.289 180.705 135.495 180.705 134.396V130.844H179.617V128.572H180.705V126.396H183.441V128.572H185.233V130.844H183.441V134.428C183.441 134.695 183.505 134.887 183.633 135.004C183.761 135.121 183.975 135.18 184.273 135.18H185.249ZM190.837 137.628C189.963 137.628 189.173 137.441 188.469 137.068C187.776 136.695 187.227 136.161 186.821 135.468C186.427 134.775 186.229 133.964 186.229 133.036C186.229 132.119 186.432 131.313 186.837 130.62C187.243 129.916 187.797 129.377 188.501 129.004C189.205 128.631 189.995 128.444 190.869 128.444C191.744 128.444 192.533 128.631 193.237 129.004C193.941 129.377 194.496 129.916 194.901 130.62C195.307 131.313 195.509 132.119 195.509 133.036C195.509 133.953 195.301 134.764 194.885 135.468C194.48 136.161 193.92 136.695 193.205 137.068C192.501 137.441 191.712 137.628 190.837 137.628ZM190.837 135.26C191.36 135.26 191.803 135.068 192.165 134.684C192.539 134.3 192.725 133.751 192.725 133.036C192.725 132.321 192.544 131.772 192.181 131.388C191.829 131.004 191.392 130.812 190.869 130.812C190.336 130.812 189.893 131.004 189.541 131.388C189.189 131.761 189.013 132.311 189.013 133.036C189.013 133.751 189.184 134.3 189.525 134.684C189.877 135.068 190.315 135.26 190.837 135.26Z" fill="url(#paint1_radial_0_1)"/>
<circle cx="19" cy="75" r="16" fill="#A990DD"/>
<path d="M19.5218 70.4C19.0098 70.4 18.5564 70.5387 18.1618 70.816C17.7778 71.0933 17.3671 71.5147 16.9298 72.08L15.5378 70.992C15.8044 70.6187 16.0764 70.288 16.3538 70C16.6311 69.7013 16.9298 69.456 17.2498 69.264C17.5804 69.0613 17.9378 68.9067 18.3218 68.8C18.7164 68.6933 19.1644 68.64 19.6658 68.64C20.2204 68.64 20.7271 68.72 21.1858 68.88C21.6444 69.04 22.0338 69.2693 22.3538 69.568C22.6738 69.8667 22.9191 70.224 23.0898 70.64C23.2711 71.0453 23.3618 71.4987 23.3618 72C23.3618 72.448 23.3031 72.848 23.1858 73.2C23.0684 73.552 22.8871 73.8933 22.6418 74.224C22.4071 74.5547 22.1031 74.8907 21.7298 75.232C21.3671 75.5733 20.9404 75.9467 20.4498 76.352L18.1458 78.272H23.4738V80H15.3778V78.448L19.2338 75.168C19.6178 74.848 19.9431 74.56 20.2098 74.304C20.4764 74.0373 20.6898 73.7867 20.8498 73.552C21.0204 73.3173 21.1431 73.088 21.2178 72.864C21.2924 72.64 21.3298 72.4 21.3298 72.144C21.3298 71.5893 21.1538 71.1627 20.8018 70.864C20.4604 70.5547 20.0338 70.4 19.5218 70.4Z" fill="#FCFCFC"/>
<path d="M56.2 69.268C57.384 69.268 58.4187 69.5027 59.304 69.972C60.1893 70.4413 60.872 71.1027 61.352 71.956C61.8427 72.7987 62.088 73.7747 62.088 74.884C62.088 75.9827 61.8427 76.9587 61.352 77.812C60.872 78.6653 60.184 79.3267 59.288 79.796C58.4027 80.2653 57.3733 80.5 56.2 80.5H51.992V69.268H56.2ZM56.024 78.132C57.0587 78.132 57.864 77.8493 58.44 77.284C59.016 76.7187 59.304 75.9187 59.304 74.884C59.304 73.8493 59.016 73.044 58.44 72.468C57.864 71.892 57.0587 71.604 56.024 71.604H54.728V78.132H56.024ZM72.033 75.892C72.033 76.148 72.017 76.4147 71.985 76.692H65.793C65.8357 77.2467 66.0117 77.6733 66.321 77.972C66.641 78.26 67.0303 78.404 67.489 78.404C68.1717 78.404 68.6463 78.116 68.913 77.54H71.825C71.6757 78.1267 71.4037 78.6547 71.009 79.124C70.625 79.5933 70.1397 79.9613 69.553 80.228C68.9663 80.4947 68.3103 80.628 67.585 80.628C66.7103 80.628 65.9317 80.4413 65.249 80.068C64.5663 79.6947 64.033 79.1613 63.649 78.468C63.265 77.7747 63.073 76.964 63.073 76.036C63.073 75.108 63.2597 74.2973 63.633 73.604C64.017 72.9107 64.5503 72.3773 65.233 72.004C65.9157 71.6307 66.6997 71.444 67.585 71.444C68.449 71.444 69.217 71.6253 69.889 71.988C70.561 72.3507 71.0837 72.868 71.457 73.54C71.841 74.212 72.033 74.996 72.033 75.892ZM69.233 75.172C69.233 74.7027 69.073 74.3293 68.753 74.052C68.433 73.7747 68.033 73.636 67.553 73.636C67.0943 73.636 66.705 73.7693 66.385 74.036C66.0757 74.3027 65.8837 74.6813 65.809 75.172H69.233ZM77.1084 80.628C76.3297 80.628 75.6364 80.4947 75.0284 80.228C74.4204 79.9613 73.9404 79.5987 73.5884 79.14C73.2364 78.6707 73.039 78.148 72.9964 77.572H75.7004C75.7324 77.8813 75.8764 78.132 76.1324 78.324C76.3884 78.516 76.703 78.612 77.0764 78.612C77.4177 78.612 77.679 78.548 77.8604 78.42C78.0524 78.2813 78.1484 78.1053 78.1484 77.892C78.1484 77.636 78.015 77.4493 77.7484 77.332C77.4817 77.204 77.0497 77.0653 76.4524 76.916C75.8124 76.7667 75.279 76.612 74.8524 76.452C74.4257 76.2813 74.0577 76.02 73.7484 75.668C73.439 75.3053 73.2844 74.82 73.2844 74.212C73.2844 73.7 73.423 73.236 73.7004 72.82C73.9884 72.3933 74.4044 72.0573 74.9484 71.812C75.503 71.5667 76.159 71.444 76.9164 71.444C78.0364 71.444 78.9164 71.7213 79.5564 72.276C80.207 72.8307 80.5804 73.5667 80.6764 74.484H78.1484C78.1057 74.1747 77.967 73.9293 77.7324 73.748C77.5084 73.5667 77.2097 73.476 76.8364 73.476C76.5164 73.476 76.271 73.54 76.1004 73.668C75.9297 73.7853 75.8444 73.9507 75.8444 74.164C75.8444 74.42 75.9777 74.612 76.2444 74.74C76.5217 74.868 76.9484 74.996 77.5244 75.124C78.1857 75.2947 78.7244 75.4653 79.1404 75.636C79.5564 75.796 79.919 76.0627 80.2284 76.436C80.5484 76.7987 80.7137 77.2893 80.7244 77.908C80.7244 78.4307 80.575 78.9 80.2764 79.316C79.9884 79.7213 79.567 80.0413 79.0124 80.276C78.4684 80.5107 77.8337 80.628 77.1084 80.628ZM83.7743 70.644C83.2943 70.644 82.8996 70.5053 82.5903 70.228C82.2916 69.94 82.1423 69.588 82.1423 69.172C82.1423 68.7453 82.2916 68.3933 82.5903 68.116C82.8996 67.828 83.2943 67.684 83.7743 67.684C84.2436 67.684 84.6276 67.828 84.9263 68.116C85.2356 68.3933 85.3903 68.7453 85.3903 69.172C85.3903 69.588 85.2356 69.94 84.9263 70.228C84.6276 70.5053 84.2436 70.644 83.7743 70.644ZM85.1343 71.572V80.5H82.3983V71.572H85.1343ZM90.509 71.444C91.1383 71.444 91.6877 71.572 92.157 71.828C92.637 72.084 93.005 72.42 93.261 72.836V71.572H95.997V80.484C95.997 81.3053 95.8317 82.0467 95.501 82.708C95.181 83.38 94.685 83.9133 94.013 84.308C93.3517 84.7027 92.525 84.9 91.533 84.9C90.2103 84.9 89.1383 84.5853 88.317 83.956C87.4957 83.3373 87.0263 82.4947 86.909 81.428H89.613C89.6983 81.7693 89.901 82.036 90.221 82.228C90.541 82.4307 90.9357 82.532 91.405 82.532C91.9703 82.532 92.4183 82.3667 92.749 82.036C93.0903 81.716 93.261 81.1987 93.261 80.484V79.22C92.9943 79.636 92.6263 79.9773 92.157 80.244C91.6877 80.5 91.1383 80.628 90.509 80.628C89.773 80.628 89.1063 80.4413 88.509 80.068C87.9117 79.684 87.437 79.1453 87.085 78.452C86.7437 77.748 86.573 76.9373 86.573 76.02C86.573 75.1027 86.7437 74.2973 87.085 73.604C87.437 72.9107 87.9117 72.3773 88.509 72.004C89.1063 71.6307 89.773 71.444 90.509 71.444ZM93.261 76.036C93.261 75.3533 93.069 74.8147 92.685 74.42C92.3117 74.0253 91.853 73.828 91.309 73.828C90.765 73.828 90.301 74.0253 89.917 74.42C89.5437 74.804 89.357 75.3373 89.357 76.02C89.357 76.7027 89.5437 77.2467 89.917 77.652C90.301 78.0467 90.765 78.244 91.309 78.244C91.853 78.244 92.3117 78.0467 92.685 77.652C93.069 77.2573 93.261 76.7187 93.261 76.036ZM103.416 71.476C104.462 71.476 105.294 71.8173 105.912 72.5C106.542 73.172 106.856 74.1 106.856 75.284V80.5H104.136V75.652C104.136 75.0547 103.982 74.5907 103.672 74.26C103.363 73.9293 102.947 73.764 102.424 73.764C101.902 73.764 101.486 73.9293 101.176 74.26C100.867 74.5907 100.712 75.0547 100.712 75.652V80.5H97.9764V71.572H100.712V72.756C100.99 72.3613 101.363 72.052 101.832 71.828C102.302 71.5933 102.83 71.476 103.416 71.476Z" fill="url(#paint2_radial_0_1)"/>
<circle cx="19" cy="194" r="16" fill="#A990DD"/>
<path d="M22.167 183L22.765 184.118C23.169 184.873 23.371 185.251 23.237 185.413C23.104 185.575 22.664 185.444 21.783 185.183C20.8795 184.916 19.9422 184.78 19 184.78C13.753 184.78 9.5 188.908 9.5 194C9.49841 195.623 9.93734 197.217 10.77 198.61M15.834 205L15.236 203.882C14.832 203.126 14.63 202.748 14.764 202.587C14.897 202.425 15.337 202.555 16.218 202.817C17.098 203.078 18.033 203.219 19.001 203.219C24.248 203.219 28.501 199.091 28.501 193.999C28.5024 192.376 28.0635 190.783 27.231 189.39" stroke="#EDEBF8" stroke-width="1.5" stroke-linecap="round" stroke-linejoin="round"/>
<path d="M54.728 190.46V192.732H58.392V194.844H54.728V197.308H58.872V199.5H51.992V188.268H58.872V190.46H54.728ZM64.6643 196.94L66.6003 190.572H69.5123L66.3443 199.5H62.9683L59.8003 190.572H62.7283L64.6643 196.94ZM74.7279 199.628C73.8532 199.628 73.0639 199.441 72.3599 199.068C71.6665 198.695 71.1172 198.161 70.7119 197.468C70.3172 196.775 70.1199 195.964 70.1199 195.036C70.1199 194.119 70.3225 193.313 70.7279 192.62C71.1332 191.916 71.6879 191.377 72.3919 191.004C73.0959 190.631 73.8852 190.444 74.7599 190.444C75.6345 190.444 76.4239 190.631 77.1279 191.004C77.8319 191.377 78.3865 191.916 78.7919 192.62C79.1972 193.313 79.3999 194.119 79.3999 195.036C79.3999 195.953 79.1919 196.764 78.7759 197.468C78.3705 198.161 77.8105 198.695 77.0959 199.068C76.3919 199.441 75.6025 199.628 74.7279 199.628ZM74.7279 197.26C75.2505 197.26 75.6932 197.068 76.0559 196.684C76.4292 196.3 76.6159 195.751 76.6159 195.036C76.6159 194.321 76.4345 193.772 76.0719 193.388C75.7199 193.004 75.2825 192.812 74.7599 192.812C74.2265 192.812 73.7839 193.004 73.4319 193.388C73.0799 193.761 72.9039 194.311 72.9039 195.036C72.9039 195.751 73.0745 196.3 73.4159 196.684C73.7679 197.068 74.2052 197.26 74.7279 197.26ZM83.5874 187.66V199.5H80.8514V187.66H83.5874ZM94.3861 190.572V199.5H91.6501V198.284C91.3728 198.679 90.9941 198.999 90.5141 199.244C90.0448 199.479 89.5221 199.596 88.9461 199.596C88.2635 199.596 87.6608 199.447 87.1381 199.148C86.6155 198.839 86.2101 198.396 85.9221 197.82C85.6341 197.244 85.4901 196.567 85.4901 195.788V190.572H88.2101V195.42C88.2101 196.017 88.3648 196.481 88.6741 196.812C88.9835 197.143 89.3995 197.308 89.9221 197.308C90.4555 197.308 90.8768 197.143 91.1861 196.812C91.4955 196.481 91.6501 196.017 91.6501 195.42V190.572H94.3861ZM100.239 197.292C100.943 197.292 101.418 196.951 101.663 196.268H104.575C104.373 197.175 103.967 197.916 103.359 198.492C102.751 199.068 101.994 199.425 101.087 199.564V200.156C101.642 200.156 102.127 200.305 102.543 200.604C102.959 200.913 103.167 201.372 103.167 201.98C103.167 202.588 102.949 203.047 102.511 203.356C102.074 203.676 101.551 203.836 100.943 203.836H98.4794V202.332H100.575C100.789 202.332 100.949 202.3 101.055 202.236C101.162 202.172 101.215 202.065 101.215 201.916C101.215 201.767 101.162 201.66 101.055 201.596C100.949 201.543 100.789 201.516 100.575 201.516H99.4394V199.564C98.3407 199.393 97.4607 198.908 96.7994 198.108C96.138 197.297 95.8074 196.273 95.8074 195.036C95.8074 194.108 95.994 193.297 96.3674 192.604C96.7514 191.911 97.2794 191.377 97.9514 191.004C98.634 190.631 99.4127 190.444 100.287 190.444C101.407 190.444 102.341 190.737 103.087 191.324C103.845 191.911 104.341 192.737 104.575 193.804H101.663C101.418 193.121 100.943 192.78 100.239 192.78C99.738 192.78 99.338 192.977 99.0394 193.372C98.7407 193.756 98.5914 194.311 98.5914 195.036C98.5914 195.761 98.7407 196.321 99.0394 196.716C99.338 197.1 99.738 197.292 100.239 197.292ZM105.495 195.02C105.495 194.103 105.666 193.297 106.007 192.604C106.359 191.911 106.834 191.377 107.431 191.004C108.028 190.631 108.695 190.444 109.431 190.444C110.06 190.444 110.61 190.572 111.079 190.828C111.559 191.084 111.927 191.42 112.183 191.836V190.572H114.919V199.5H112.183V198.236C111.916 198.652 111.543 198.988 111.063 199.244C110.594 199.5 110.044 199.628 109.415 199.628C108.69 199.628 108.028 199.441 107.431 199.068C106.834 198.684 106.359 198.145 106.007 197.452C105.666 196.748 105.495 195.937 105.495 195.02ZM112.183 195.036C112.183 194.353 111.991 193.815 111.607 193.42C111.234 193.025 110.775 192.828 110.231 192.828C109.687 192.828 109.223 193.025 108.839 193.42C108.466 193.804 108.279 194.337 108.279 195.02C108.279 195.703 108.466 196.247 108.839 196.652C109.223 197.047 109.687 197.244 110.231 197.244C110.775 197.244 111.234 197.047 111.607 196.652C111.991 196.257 112.183 195.719 112.183 195.036ZM107.335 189.82C107.591 188.241 108.327 187.452 109.543 187.452C109.778 187.452 109.98 187.489 110.151 187.564C110.332 187.628 110.551 187.729 110.807 187.868C110.999 187.975 111.154 188.055 111.271 188.108C111.388 188.151 111.511 188.172 111.639 188.172C112.034 188.172 112.263 187.932 112.327 187.452H113.735C113.479 189.031 112.743 189.82 111.527 189.82C111.292 189.82 111.084 189.788 110.903 189.724C110.732 189.649 110.519 189.543 110.263 189.404C110.071 189.297 109.916 189.223 109.799 189.18C109.682 189.127 109.559 189.1 109.431 189.1C109.036 189.1 108.802 189.34 108.727 189.82H107.335ZM120.962 199.628C120.088 199.628 119.298 199.441 118.594 199.068C117.901 198.695 117.352 198.161 116.946 197.468C116.552 196.775 116.354 195.964 116.354 195.036C116.354 194.119 116.557 193.313 116.962 192.62C117.368 191.916 117.922 191.377 118.626 191.004C119.33 190.631 120.12 190.444 120.994 190.444C121.869 190.444 122.658 190.631 123.362 191.004C124.066 191.377 124.621 191.916 125.026 192.62C125.432 193.313 125.634 194.119 125.634 195.036C125.634 195.953 125.426 196.764 125.01 197.468C124.605 198.161 124.045 198.695 123.33 199.068C122.626 199.441 121.837 199.628 120.962 199.628ZM120.962 197.26C121.485 197.26 121.928 197.068 122.29 196.684C122.664 196.3 122.85 195.751 122.85 195.036C122.85 194.321 122.669 193.772 122.306 193.388C121.954 193.004 121.517 192.812 120.994 192.812C120.461 192.812 120.018 193.004 119.666 193.388C119.314 193.761 119.138 194.311 119.138 195.036C119.138 195.751 119.309 196.3 119.65 196.684C120.002 197.068 120.44 197.26 120.962 197.26Z" fill="url(#paint3_radial_0_1)"/>
<circle cx="19" cy="194" r="17.9725" stroke="#A990DD" stroke-width="2.05508"/>
<defs>
<radialGradient id="paint0_radial_0_1" cx="0" cy="0" r="1" gradientUnits="userSpaceOnUse" gradientTransform="translate(133.62 18.2689) scale(100.924 33.1223)">
<stop offset="0.00537634" stop-color="#E591EF"/>
<stop offset="1" stop-color="#9E6CEF"/>
</radialGradient>
<radialGradient id="paint1_radial_0_1" cx="0" cy="0" r="1" gradientUnits="userSpaceOnUse" gradientTransform="translate(177.793 132.269) scale(154.883 33.1223)">
<stop offset="0.00537634" stop-color="#E591EF"/>
<stop offset="1" stop-color="#9E6CEF"/>
</radialGradient>
<radialGradient id="paint2_radial_0_1" cx="0" cy="0" r="1" gradientUnits="userSpaceOnUse" gradientTransform="translate(133.62 75.2689) scale(100.924 33.1223)">
<stop offset="0.00537634" stop-color="#E591EF"/>
<stop offset="1" stop-color="#9E6CEF"/>
</radialGradient>
<radialGradient id="paint3_radial_0_1" cx="0" cy="0" r="1" gradientUnits="userSpaceOnUse" gradientTransform="translate(133.62 194.269) scale(100.924 33.1223)">
<stop offset="0.00537634" stop-color="#E591EF"/>
<stop offset="1" stop-color="#9E6CEF"/>
</radialGradient>
</defs>
</svg>
